<svg width="315" height="305" viewBox="0 0 315 305" fill="none" xmlns="http://www.w3.org/2000/svg" style="color: #2A5473"><g id="illustration">
<path d="M109.51 277.335C109.51 277.335 115.447 280.283 152.119 283.016C199.318 289.685 209.66 291.596 244.65 277.375C276.046 262.014 273.99 274.533 294.057 241.297C295.897 202.881 290.104 194.202 290.104 194.202C290.104 194.202 281.084 180.052 251.016 149.65C218.598 133.555 210.346 134.616 210.346 134.616C190.943 144.97 187.129 143.077 178.359 170.316C178.359 170.316 180.556 194.617 144.133 224.891C122.676 239.383 116.513 243.416 39.499 239.352C26.7948 264.941 36.7159 262.243 36.7159 262.243L109.51 277.335Z" fill="currentColor"/>
<path d="M93.5975 14.1315C90.2951 15.8846 88.9212 17.7353 87.4625 18.9418C84.832 22.6492 85.3532 24.5928 86.4141 29.1287C91.7607 29.3993 92.9602 26.261 94.3262 37.2117C95.2903 44.9402 95.8216 45.6071 94.1569 53.204C87.1985 51.5732 83.8057 53.3217 82.5578 54.5387C74.4517 50.2879 71.8688 47.21 64.3089 48.493C58.4981 49.4791 52.6854 53.6656 48.5335 56.6559C44.3816 59.6463 35.3632 68.1512 31.4411 78.1942C27.519 88.2372 27.2148 98.4634 29.0852 104.63C30.9555 110.796 39.6403 123.728 41.2973 128.931C43.0685 134.494 43.2759 141.276 43.9295 147.627C44.5831 153.978 43.3958 158.173 43.1052 163.915C42.8425 169.106 45.9096 171.74 48.908 175.732C52.3954 180.376 54.4078 181.132 56.9294 181.899C60.1135 182.869 64.0293 180.34 66.0293 179.161C66.5385 181.747 67.7507 183.088 69.5692 185.101C71.3876 187.113 70.7492 187.081 73.8445 189.158C76.366 189.925 77.6106 190.629 80.7706 191.429C82.6539 192.161 82.0498 191.519 85.2077 192.29C88.1195 193.001 90.5643 192.822 92.8693 192.678C95.3603 192.522 96.0937 192.204 98.0414 191.662C100.503 190.978 101.937 190.579 104.652 187.516C106.026 185.666 107.388 183.813 107.388 183.813C110.432 184.982 113.101 184.742 115.017 184.839C118.848 185.033 120.497 185.169 123.988 184.653C127.212 184.176 129.509 182.044 133.53 178.406C137.55 174.767 137.019 167.7 137.915 162.625C138.812 157.55 140.888 146.773 143.765 140.518C146.642 134.262 147.281 131.094 152.428 121.113C156.137 111.059 163.899 98.6256 160.834 89.2248C155.387 70.3863 151.653 68.2771 143.102 60.1632C137.35 56.0315 134.358 55.8801 125.355 56.7047C121.792 54.8909 122.945 54.487 119.145 53.1899C116.772 52.4003 109.317 55.2103 106.917 54.4914C104.581 49.9871 105.526 44.0437 105.842 37.7945C106.165 31.4099 107.173 28.9106 105.315 22.4041C103.757 17.0255 102.416 16.4965 100.588 15.1253C98.0412 14.3564 96.7786 14.2924 93.5975 14.1315Z" fill="currentColor"/>
</g></svg>
