<svg width="426" height="316" viewBox="0 0 426 316" fill="none" xmlns="http://www.w3.org/2000/svg">
<path d="M156.713 40.6892C177.18 41.7769 197.636 45.5569 218.265 49.8865C232.531 52.8433 245.639 58.1945 257.688 64.9039C276.49 74.0633 298.132 85.6078 316.667 95.9215C334.828 106.028 350.917 113.971 363.676 123.181C370.914 121.645 378.216 120.693 385.34 119.09C396.668 116.306 407.744 114.281 420.395 111.646C414.911 125.438 410.127 137.501 405.11 149.563C400.336 161.363 401.254 173.975 397.792 186.42C392.448 181.748 372.788 157.464 360.563 140.986C345.515 141.198 331.612 140.675 305.571 138.243C278.183 137.02 253.786 134.663 227.512 129.236C194.448 122.412 163.947 111.67 136.988 95.1279C112.109 80.9512 100.924 70.3312 90.6342 48.6549C108.828 42.3963 133.872 39.5149 156.713 40.6892Z" fill="#2A5473"/>
<path d="M331.895 138.761C325.255 144.797 321.034 152.03 318.552 156.471C318.552 156.471 308.222 153.953 295.894 135.415L331.895 138.761Z" fill="#2A5473"/>
<path d="M265.629 70.3927C261.802 63.696 256.97 53.6801 255.648 43.6138C255.648 43.6138 237.782 44.2428 226.837 52.9617C226.749 53.0361 226.661 53.1105 226.533 53.2067L265.629 70.3927Z" fill="#2A5473"/>
<path d="M222.898 194.7C205.947 195.601 189.005 198.731 171.919 202.317C160.104 204.766 149.248 209.198 139.269 214.755C123.697 222.341 105.773 231.902 90.4221 240.444C75.3804 248.814 62.0553 255.393 51.4884 263.021C45.4939 261.749 39.4461 260.96 33.546 259.633C24.1637 257.327 14.9905 255.65 4.51293 253.468C9.05422 264.89 13.0165 274.881 17.1716 284.871C21.126 294.643 20.3651 305.089 23.2326 315.396C27.6588 311.526 43.9418 291.414 54.0662 277.767C66.5291 277.942 78.0441 277.51 99.6113 275.496C122.295 274.482 142.501 272.531 164.262 268.035C191.646 262.384 216.906 253.487 239.235 239.787C259.839 228.045 269.104 219.25 277.626 201.297C262.557 196.114 241.815 193.727 222.898 194.7Z" fill="#2A5473"/>
<path d="M77.8099 275.924C83.3089 280.923 86.8051 286.914 88.8608 290.592C88.8608 290.592 97.4157 288.507 107.626 273.153L77.8099 275.924Z" fill="#2A5473"/>
<path d="M132.692 219.301C135.861 213.754 139.864 205.459 140.958 197.122C140.958 197.122 155.755 197.643 164.82 204.864C164.893 204.926 164.966 204.987 165.072 205.067L132.692 219.301Z" fill="#2A5473"/>
</svg>
