<svg width="356" height="306" viewBox="0 0 356 306" fill="none" xmlns="http://www.w3.org/2000/svg" style="color: #2A5473"><g id="illustration">
<path d="M74.7638 47.5905C91.0461 43.5874 110.909 40.7635 126.194 39.0784C138.03 37.772 147.989 36.4413 163.673 35.5757C186.564 34.3124 194.39 33.7669 211.501 34.4013C228.612 35.0358 235.367 36.1839 240.349 41.3145C242.102 57.2128 242 59.8134 246.331 58.3242C253.203 55.8093 263.46 51.4715 271.167 48.9587C291.879 45.096 299.075 42.0917 314.239 47.9916C324.861 52.8156 326.954 54.7899 334.741 62.4504C342.808 72.6053 344.753 78.7003 346.714 96.4722C345.543 117.424 344.296 120.401 338.323 132.104C332.842 142.49 325.659 149.241 317.843 155.189C308.633 162.198 298.694 173.304 288.927 182.042C278.171 191.667 262.563 206.124 253.998 214.293C252.721 208.439 250.734 170.478 251.356 173.25C253.71 174.568 254.846 174.714 260.742 172.53C268.018 169.834 272.561 165.256 281.952 155.991C290.838 147.224 297.062 144.228 311.065 131.008C315.289 126.541 313.915 128.17 318.493 121.039C322.309 112.729 324.668 108.367 325.681 97.5275C324.581 87.5518 325.516 87.4486 316.833 74.5229C313.372 71.7494 312.299 70.6058 304.301 66.7547C300.173 66.3776 287.816 66.0489 276.556 69.8151C262.592 77.666 260.572 82.8832 256.52 91.2726C242.34 120.636 251.281 173.093 251.356 173.25C253.154 186.619 253.249 207.434 253.998 214.293C253.478 223.817 254.332 228.771 253.982 234.174C223.085 280.179 84.5569 277.611 61.6046 255.079C53.4188 226.638 33.7037 81.1426 32.0301 65.9695C36.6242 56.5301 59.7564 51.28 74.7638 47.5905Z" fill="currentColor"/>
<path d="M188.65 105.557C184.925 109.777 182.791 114.577 181.549 117.517C181.549 117.517 174.935 116.657 165.974 105.947L188.65 105.557Z" fill="currentColor"/>
<path d="M142.63 67.4882C139.783 63.5761 136.081 57.6638 134.565 51.4785C134.565 51.4785 123.469 53.0993 117.245 59.2881C117.195 59.3405 117.146 59.3929 117.073 59.4617L142.63 67.4882Z" fill="currentColoryy"/>
</g></svg>
