<svg width="333" height="299" viewBox="0 0 333 299" fill="none" xmlns="http://www.w3.org/2000/svg">
<path d="M226.643 39.2155C226.643 39.2155 240.255 36.0123 252.268 36.0123C264.289 37.6073 256.283 36.0056 282.712 39.2091C305.152 48.8219 306.752 48.8219 318.767 64.8393C318.767 86.472 307.555 97.6751 307.555 97.6751C307.555 97.6751 309.157 130.511 307.555 149.732C284.33 167.351 255.498 186.572 240.282 196.182C225.065 205.793 230.484 205.023 200.851 195.413C200.851 195.413 186.436 191.209 173.009 187.373C151.385 181.195 151.197 180.196 133.578 172.187C133.578 149.763 135.368 135.347 135.368 111.29C126.54 104.082 125.445 93.7839 126.54 86.472C129.417 67.244 131.334 68.8463 138.557 64.0438C162.568 57.6341 184.997 51.2285 184.997 51.2285L226.643 39.2155Z" fill="#2A5473"/>
<path d="M102.239 185.098C102.239 185.098 67.0011 193.904 54.988 193.904C29.3328 191.498 21.3092 194.702 15.7329 198.707C5.48717 213.954 8.40134 210.005 6.93567 219.532C5.33392 229.944 11.7409 241.156 11.7409 241.156C11.7409 241.156 14.9444 247.563 27.7583 252.368C35.7671 253.169 41.3732 251.567 42.174 252.368C42.9749 253.169 40.5723 267.585 48.581 274.792C48.581 274.792 53.3862 279.598 67.001 282C78.0073 283.941 84.6202 282 95.8324 277.995C103.04 271.588 107.045 272.389 112.651 254.77C128.668 249.164 155.898 241.956 163.114 233.146C163.116 229.942 164.523 223.536 163.114 216.333C146.297 202.718 138.278 199.514 138.278 199.514L102.239 185.098Z" fill="#2A5473"/>
</svg>
