<svg width="315" height="305" viewBox="0 0 315 305" fill="none" xmlns="http://www.w3.org/2000/svg" style="color: #2A5473"><g id="illustration">
<circle cx="71" cy="88" r="15" fill="currentColor"/>
<circle cx="234" cy="258" r="15" fill="currentColor"/>
<circle cx="274" cy="178" r="10" fill="currentColor"/>
<circle cx="305" cy="233" r="10" fill="currentColor"/>
<circle cx="117" cy="10" r="10" fill="currentColor"/>
<path d="M230.414 22.7882C233.762 24.5702 239.209 27.548 242.267 27.8598C244.946 25.6421 244.965 24.1698 242.994 21.3999C240.509 20.8585 237.448 20.5807 234.68 19.3612C228.694 16.7244 225.231 16.3707 221.972 15.6684C217.899 14.7906 216.339 14.5909 212.099 16.5418C206.878 21.1451 199.385 22.392 193.559 27.274C183.967 36.7785 181.376 38.6579 190.532 36.6929C189.419 40.141 182.27 44.2106 177.655 48.5358C172.301 48.0639 164.331 54.6669 167.396 61.3293C159.619 61.9722 155.513 68.9987 157.137 74.1227C149.36 74.7656 145.254 81.7922 147.484 86.6375C140.918 86.7231 134.813 91 138.436 98.8736C131.64 96.8635 123.67 103.466 127.85 112.551C120.121 111.704 114.295 116.587 116.985 125.624C106.555 125.286 102.16 131.696 104.631 138.647C97.5075 137.522 92.6035 141.231 93.8521 148.729C87.2863 148.815 83.0467 150.766 83.9683 159.148C76.8452 158.023 70.9706 164.395 72.2675 170.404C63.3627 168.63 60.4565 175.073 60.2634 181.033C49.5918 188.145 48.3035 189.593 43.7704 193.039C38.8767 196.758 34.3504 200.805 29.3595 204.792C25.0638 208.224 18.737 210.415 13.4674 216.508C19.9373 219.404 25.3165 220.655 32.745 220.116C38.4263 219.703 45.3045 218.694 52.8174 217.485C57.4261 216.743 62.1477 215.44 66.4075 213.48C70.0241 211.815 75.4575 209.269 79.7454 205.828C84.0334 202.387 85.5584 202.466 90.452 198.746C95.3456 195.027 103.037 187.818 107.325 184.377C112.12 180.53 119.409 172.359 123.362 168.191C128.304 162.982 131.848 157.786 140.428 147.862C145.697 141.768 157.421 128.078 162.158 121.718C167.148 115.018 170.957 109.459 177.455 100.735C182.446 94.0352 190.357 84.75 196.435 76.5895C201.425 69.89 207.445 59.0473 209.964 54.9525C211.878 51.1364 212.121 51.7118 213.477 46.6843C213.376 68.7943 215.9 45.5696 219.775 36.4474C220.35 33.4864 222.566 24.9349 223.548 22.2825C225.365 21.4464 227.46 21.216 230.414 22.7882Z" fill="currentColor"/>
<path d="M218.387 92.0341C221.343 92.6619 226.17 93.7433 228.581 93.309C230.145 91.0209 229.835 89.8892 227.716 88.2017C225.694 88.3341 223.288 88.7951 220.899 88.4706C215.735 87.7689 213.005 88.2602 210.354 88.4397C207.041 88.6641 205.803 88.8545 202.985 91.2818C200 95.9565 194.536 98.561 191.148 103.582C185.895 112.973 184.325 114.982 190.904 111.462C190.81 114.348 186.232 119.038 183.649 123.366C179.445 124.184 174.794 130.995 178.608 135.423C172.794 137.627 171.196 143.912 173.568 147.479C167.753 149.683 166.155 155.968 168.93 159.188C163.92 160.699 160.186 165.318 164.694 170.551C159.046 170.507 154.396 177.319 159.597 183.356C153.492 184.409 150.104 189.431 154.154 195.759C146.092 197.796 144.137 203.673 147.559 208.453C141.856 209.159 138.917 213.079 141.524 218.547C136.514 220.058 133.696 222.485 136.247 228.702C130.544 229.408 127.448 235.581 129.764 239.897C122.554 240.499 121.746 246.073 122.91 250.68C116.303 258.476 115.635 259.869 112.922 263.505C109.993 267.431 107.417 271.527 104.473 275.679C101.938 279.253 97.5752 282.324 94.8807 288.15C100.473 288.943 104.868 288.717 110.438 286.669C114.699 285.103 119.744 282.815 125.232 280.236C128.598 278.653 131.927 276.616 134.758 274.177C137.162 272.106 140.762 268.96 143.289 265.381C145.815 261.802 147.001 261.527 149.93 257.601C152.859 253.675 157.162 246.461 159.689 242.882C162.514 238.88 166.297 231.018 168.408 226.956C171.046 221.878 172.616 217.119 177.003 207.63C179.697 201.803 185.662 188.738 187.89 182.824C190.237 176.595 191.93 171.499 194.986 163.387C197.333 157.158 201.348 148.305 204.207 140.717C206.554 134.488 208.777 124.859 209.805 121.169C210.431 117.825 210.744 118.212 210.676 114.063C215.466 131.018 212.286 112.676 213.246 104.837C213.034 102.443 212.849 95.4057 213.017 93.1583C214.224 92.118 215.779 91.4803 218.387 92.0341Z" fill="currentColor"/>
</g></svg>
