<svg width="333" height="299" viewBox="0 0 333 299" fill="none" xmlns="http://www.w3.org/2000/svg" style="color: #2A5473"><g id="illustration">
<path d="M226.643 39.2155C226.643 39.2155 240.255 36.0123 252.268 36.0123C264.289 37.6073 256.283 36.0056 282.712 39.2091C305.153 48.8219 306.752 48.8219 318.768 64.8393C318.768 86.472 307.555 97.6751 307.555 97.6751C307.555 97.6751 309.157 130.511 307.555 149.732C284.33 167.351 255.499 186.572 240.282 196.182C225.066 205.793 230.484 205.023 200.852 195.413C200.852 195.413 186.436 191.209 173.009 187.373C151.385 181.195 151.198 180.196 133.578 172.187C133.578 149.763 135.368 135.347 135.368 111.29C126.541 104.082 125.445 93.7839 126.541 86.472C129.418 67.244 131.335 68.8463 138.557 64.0438C162.569 57.6341 184.998 51.2285 184.998 51.2285L226.643 39.2155Z" fill="currentColor"/>
<path d="M102.239 185.098C102.239 185.098 67.0014 193.904 54.9883 193.904C29.3332 191.498 21.3096 194.702 15.7333 198.707C5.48754 213.954 8.40171 210.005 6.93603 219.532C5.33429 229.944 11.7413 241.156 11.7413 241.156C11.7413 241.156 14.9447 247.563 27.7587 252.368C35.7674 253.169 41.3735 251.567 42.1744 252.368C42.9753 253.169 40.5726 267.585 48.5814 274.792C48.5814 274.792 53.3866 279.598 67.0014 282C78.0077 283.941 84.6206 282 95.8328 277.995C103.041 271.588 107.045 272.389 112.651 254.77C128.669 249.164 155.898 241.956 163.115 233.146C163.116 229.942 164.523 223.536 163.115 216.333C146.297 202.718 138.279 199.514 138.279 199.514L102.239 185.098Z" fill="currentColoryyy"/>
</g></svg>
