<svg width="333" height="305" viewBox="0 0 333 305" fill="none" xmlns="http://www.w3.org/2000/svg" style="color: #2A5473"><g id="illustration">
<path d="M177.444 69.3816C177.444 69.3816 177.636 73.1738 170.187 73.9568C167.035 74.2882 162.592 71.3249 161.794 67.0784C137.086 85.2331 110.164 108.757 96.7481 122.895C99.6501 126.935 99.118 129.724 97.9055 131.152C96.6269 132.658 95.1454 133.814 93.639 133.644C89.8562 131.057 89.8562 131.057 88.5652 132.737C95.726 172.226 90.4448 154.367 96.121 176.043C194.284 151.779 247.032 134.182 247.032 134.182C247.032 134.182 261.325 128.51 278.51 122.267C277.266 119.192 277.037 116.642 278.163 114.966C279.575 112.864 280.74 112.03 284.971 112.504C287.532 112.79 289.192 114.766 290.423 118.138C299.591 114.906 308.982 111.721 317.239 109.164C326.163 70.7108 320.247 71.4883 320.247 71.4883C299.312 49.6321 302.656 53.4849 276.147 37.6138C276.147 37.6138 272.804 33.6431 222.522 21.1875C194.267 44.1576 191.089 45.9674 184.869 50.4022C173.761 58.3217 171.613 60.8386 171.613 60.8386L176.662 63.8642L177.444 69.3816Z" fill="currentColor"/>
<path d="M232.817 236.67C217.09 230.282 200.424 225.916 183.434 221.9C171.698 219.096 159.988 218.494 148.593 219.283C131.273 219.532 110.984 220.57 93.4589 221.778C76.286 222.962 61.4284 223.254 48.6213 225.669C43.7358 221.97 38.5964 218.686 33.8197 214.977C26.3067 208.902 18.7159 203.486 10.159 197.057C9.4156 209.327 8.75635 220.054 8.27197 230.863C7.69832 241.39 2.57031 250.522 0.78573 261.071C6.43683 259.449 29.7236 248.163 44.688 240.112C55.895 245.568 66.5022 250.07 86.8808 257.412C107.845 266.135 126.965 272.956 148.573 278.134C175.763 284.656 202.41 287.338 228.444 284.426C252.085 282.554 264.209 278.529 279.553 265.9C268.116 254.804 250.354 243.829 232.817 236.67Z" fill="currentColor"/>
<path d="M66.9639 248.535C69.8171 255.397 70.4358 262.306 70.7334 266.509C70.7334 266.509 79.3638 268.257 95.1314 258.698L66.9639 248.535Z" fill="currentColor"/>
<path d="M140.707 220.603C145.933 216.929 153.081 211.122 157.615 204.04C157.615 204.04 170.788 210.8 175.924 221.189C175.964 221.275 176.004 221.362 176.066 221.479L140.707 220.603Z" fill="currentColory"/>
</g></svg>
