<svg width="440" height="366" viewBox="0 0 440 366" fill="none" xmlns="http://www.w3.org/2000/svg" style="color: #2A5473"><g id="illustration">
<path d="M339.514 15.1707C343.059 17.0527 344.534 19.0396 346.1 20.3348C348.924 24.3148 348.365 26.4014 347.226 31.2708C341.486 31.5613 340.198 28.1922 338.732 39.9483C337.697 48.245 337.126 48.9611 338.913 57.1166C346.384 55.3658 350.026 57.243 351.366 58.5495C360.068 53.9861 362.841 50.6818 370.957 52.0591C377.195 53.1178 383.435 57.6121 387.892 60.8224C392.349 64.0327 402.031 73.163 406.241 83.9446C410.452 94.7262 410.779 105.704 408.771 112.324C406.763 118.944 397.439 132.827 395.66 138.413C393.759 144.384 393.536 151.666 392.835 158.484C392.133 165.302 393.408 169.805 393.72 175.97C394.002 181.542 390.709 184.37 387.49 188.656C383.746 193.641 381.586 194.452 378.879 195.276C375.46 196.317 371.257 193.602 369.11 192.336C368.563 195.113 367.262 196.553 365.309 198.713C363.357 200.873 364.043 200.839 360.72 203.068C358.013 203.892 356.677 204.647 353.284 205.506C351.262 206.292 351.911 205.603 348.521 206.431C345.395 207.194 342.77 207.002 340.296 206.847C337.622 206.68 336.834 206.339 334.743 205.757C332.101 205.023 330.562 204.595 327.646 201.306C326.172 199.319 324.71 197.33 324.71 197.33C321.442 198.585 318.576 198.328 316.52 198.432C312.407 198.64 310.637 198.786 306.889 198.232C303.427 197.72 300.962 195.432 296.645 191.526C292.329 187.619 292.9 180.033 291.937 174.584C290.974 169.136 288.746 157.567 285.658 150.851C282.569 144.136 281.883 140.735 276.357 130.02C272.375 119.227 264.042 105.878 267.333 95.7863C273.181 75.5625 277.189 73.2982 286.369 64.5876C292.544 60.1521 295.756 59.9895 305.422 60.8747C309.246 58.9276 308.009 58.494 312.088 57.1015C314.635 56.2538 322.639 59.2704 325.215 58.4986C327.723 53.6631 326.709 47.2827 326.369 40.5739C326.022 33.7198 324.94 31.0367 326.935 24.0517C328.607 18.2775 330.047 17.7096 332.009 16.2376C334.744 15.4121 336.099 15.3435 339.514 15.1707Z" fill="currentColor"/>
<path d="M135.66 129.186C135.66 129.186 178.309 91.2617 221.468 120.194C236.693 136.061 244.726 134.089 246.529 177.333C235.866 210.712 227.064 213.463 210.43 223.961C181.44 237.005 147.716 219.308 147.716 219.308C147.716 219.308 118.165 202.652 105.898 200.582C85.2923 208.387 84.1665 199.884 84.1665 199.884C34.9088 197.985 44.813 209.088 28.0127 212.743C28.0127 212.743 1.03957 212.206 14.2946 185.503C6.97698 173.909 0.491351 156.714 18.6181 153.823C29.0763 152.156 35.1257 169.144 80.6222 164.169C81.4699 153.394 103.155 156.447 103.155 156.447L135.66 129.186Z" fill="currentColor"/>
<path d="M110.259 292.545C105.246 291.341 87.8803 282.947 82.3704 279.54C77.8198 277.898 62.2186 268.545 58.5105 265.083C65.6563 263.933 72.7196 260.969 82.6533 261.553C99.7119 260.969 113.373 263.148 122.327 263.833C130.438 264.454 145.997 267.685 153.923 268.133C163.829 268.693 171.476 268.88 190.465 271.836C205.081 274.799 232.47 278.034 242.346 277.696C252.222 277.358 265.874 282.283 274.231 290.087C281.256 298.386 282.6 304.855 280.509 315.939C278.697 325.546 273.641 328.987 267.754 333.322C260.886 338.43 242.584 337.018 235.707 333.204C221.658 329.644 205.423 322.242 192.806 320.52C180.722 315.754 170.428 312.711 160.289 309.711C133.043 301.652 117.567 296.762 110.259 292.545Z" fill="currentColor"/>
<path d="M276.121 307.882C276.124 308.465 276.253 308.835 276.821 308.952C278.474 309.289 280.135 309.857 281.806 309.864C284.307 309.863 286.798 309.701 289.092 308.303C290.485 307.441 290.83 306.351 290.909 304.872C290.942 304.158 291.224 303.368 291.614 302.767C292.232 301.839 292.686 301.854 293.67 302.453C294.045 302.695 294.467 302.896 294.894 303.01C295.756 303.277 296.576 302.843 296.804 301.863C297.053 300.8 297.171 299.703 297.182 298.611C297.195 296.391 296.846 294.145 297.457 291.997C297.857 290.568 298.709 289.296 300.092 288.537C300.854 288.124 301.588 288.144 302.146 288.823C302.784 289.594 303.352 290.434 303.84 291.306C304.701 292.825 306.09 293.427 307.706 293.507C308.922 293.568 309.73 292.655 310.471 291.794C311.343 290.775 312.191 289.714 313.496 289.181C315.453 288.382 317.631 289.389 318.795 290.759C320.029 292.202 320.526 293.764 319.638 295.503C318.849 297.003 317.593 298.008 315.832 298.207C314.306 298.381 312.749 298.475 311.235 298.67C307.455 299.175 304.343 300.865 301.94 303.857C300.013 306.252 297.587 308.144 294.773 309.314C292.894 310.081 290.782 310.274 288.758 310.667C287.623 310.893 286.46 311.093 285.309 311.12C284.281 311.144 283.24 310.954 282.22 310.751C280.345 310.39 278.475 309.942 276.595 309.597C276.361 309.552 275.886 309.813 275.833 310.011C275.752 310.377 275.702 310.893 276.332 310.974C278.077 311.23 279.834 311.506 281.58 311.762C281.798 311.803 282.029 311.794 282.242 311.851C284.874 312.415 287.487 313.044 290.128 313.505C292.296 313.891 294.503 314.2 296.707 313.661C298.348 313.254 299.388 312.068 300.139 310.645C300.894 309.206 301.429 307.602 302.36 306.299C303.802 304.267 305.869 302.862 308.408 302.783C310.237 302.726 311.825 303.699 312.787 305.368C313.316 306.286 313.815 307.249 314.202 308.236C314.862 309.912 316.284 309.993 317.705 309.95C319.055 309.906 319.73 309.293 320.264 307.759C320.655 306.629 320.689 305.385 320.92 304.194C321.01 303.724 321.093 303.217 321.339 302.824C321.959 301.825 322.882 301.207 324.096 301.144C324.955 301.092 325.835 301.028 326.679 301.166C328.272 301.398 329.339 302.408 330.162 303.74C330.901 304.926 331.615 306.141 332.872 306.901C335.09 308.219 338.466 307.253 339.122 304.605C339.796 301.891 340.339 299.142 340.985 296.403C341.127 295.806 341.417 295.249 341.658 294.678C342.26 293.286 343.562 293.158 344.803 292.996C346.75 292.759 348.151 293.841 349.438 295.085C350.318 295.939 351.14 296.882 352 297.748C353.967 299.74 356.465 299.615 358.277 297.453C358.997 296.605 359.563 295.609 360.381 294.858C361.694 293.639 363.027 292.407 364.545 291.473C365.471 290.909 366.71 290.818 367.839 290.679C368.716 290.561 369.635 290.613 370.512 290.759C371.252 290.887 371.921 291.349 372.649 291.526C374.793 292.065 376.326 293.376 377.606 295.236C378.931 297.127 379.854 299.139 380.149 301.388C380.335 302.797 380.483 304.284 380.241 305.648C379.779 308.225 378.197 310.254 376.112 311.725C374.851 312.622 373.298 313.16 371.804 313.677C369.935 314.341 368.035 314.926 366.093 315.341C362.73 316.064 359.351 316.712 355.955 317.232C352.963 317.683 349.943 317.916 346.933 318.239C344.866 318.462 342.786 318.734 340.713 318.849C339.122 318.935 337.527 318.843 335.923 318.784C333.902 318.701 331.891 318.586 329.879 318.471C329.1 318.421 328.309 318.35 327.531 318.23C324.963 317.824 322.417 317.336 319.857 316.968C317.503 316.62 315.126 316.354 312.759 316.055C312.129 315.975 311.481 315.96 310.843 315.912C310.833 316.016 310.811 316.098 310.8 316.201C311.307 316.478 311.801 316.804 312.321 317.032C313.14 317.393 313.974 317.828 314.838 318.024C316.428 318.397 318.058 318.622 319.659 318.892C319.91 318.941 320.162 318.921 320.417 318.954C323.03 319.389 325.637 319.911 328.248 320.222C331.624 320.632 334.97 321.158 338.185 322.302C339.92 322.925 341.581 323.758 343.255 324.542C344.225 324.996 345.2 325.433 346.085 326.006C348.53 327.596 349.758 330.043 350.421 332.762C350.906 334.762 351.09 336.771 350.621 338.851C350.044 341.467 347.311 342.464 345.344 342.379C344.112 342.313 342.856 342.136 341.691 341.753C340.505 341.382 339.33 340.838 338.302 340.139C336.821 339.16 335.417 338.025 334.055 336.866C332.522 335.556 332.234 333.608 331.667 331.779C331.248 330.45 330.669 329.13 329.879 328C329.521 327.498 328.477 327.254 327.755 327.255C326.154 327.249 324.784 327.959 323.622 329.077C321.092 331.488 317.297 332.113 314.196 330.805C312.582 330.126 311.87 328.576 311.212 327.024C310.629 325.65 309.964 324.254 309.11 323.037C308.462 322.104 307.325 321.747 306.176 322.092C305.795 322.202 305.441 322.601 305.175 322.936C304.391 323.891 303.562 324.621 302.188 324.624C301.201 324.624 300.615 324.185 300.231 323.447C299.716 322.479 299.284 321.463 298.889 320.44C298.311 318.979 297.29 317.929 295.836 317.505C291.911 316.382 288 315.141 284.001 314.423C281.718 314.005 279.531 313.296 277.282 312.817C276.152 312.567 275.231 311.403 275.173 310.24C275.172 310.046 275.156 309.777 275.269 309.683C275.919 309.098 275.592 308.411 275.558 307.749L276.121 307.882Z" fill="currentColor"/>
<path d="M274.177 315.99C274.19 315.94 274.138 315.873 274.151 315.824C274.591 314.707 274.785 313.523 274.897 312.318C274.912 312.128 275.047 311.952 275.133 311.763C275.234 311.914 275.339 312.048 275.439 312.198C275.374 312.375 275.33 312.54 275.27 312.7C275.084 313.197 275.239 313.539 275.769 313.663C277.866 314.119 279.98 314.509 282.059 315.03C283.378 315.366 284.767 315.438 285.97 316.272C286.79 316.827 287.838 317.055 288.785 317.397C292.505 318.694 295.497 320.871 297.612 324.279C298.745 326.1 300.304 327.577 302.149 328.707C302.272 328.775 302.399 328.826 302.542 328.882C304.051 329.428 305.59 329.928 307.07 330.519C309.217 331.376 311.33 332.295 313.457 333.165C314.518 333.608 315.609 334.006 316.686 334.454C318.874 335.357 321.037 336.29 323.229 337.177C324.786 337.806 326.25 338.586 327.405 339.796C329.071 341.53 330.853 343.225 331.251 345.75C331.458 347.146 331.409 348.58 331.434 349.999C331.446 350.479 331.438 350.97 331.347 351.44C330.919 353.496 329.55 354.665 327.656 355.358C326.037 355.947 324.488 355.55 323.132 354.763C321.849 354.031 321.144 352.784 320.915 351.205C320.713 349.792 320.254 348.416 319.807 347.061C319.47 346.017 318.153 345.347 317.114 345.739C316.092 346.136 315.02 346.59 314.199 347.288C312.859 348.411 311.496 348.505 310.052 347.783C308.935 347.219 308.741 346.038 308.55 344.91C308.348 343.691 308.2 342.469 307.903 341.278C307.537 339.75 306.348 339.326 304.698 340.031C303.405 340.584 301.836 340.394 301.16 339.366C300.722 338.701 300.572 337.814 300.438 337.001C300.293 336.098 300.387 335.152 300.263 334.237C300.091 332.973 299.4 332.594 298.152 332.913C296.656 333.306 296.264 333.06 295.433 331.69C294.74 330.534 294.732 329.314 294.704 328.036C294.644 326.026 294.128 324.14 292.258 322.969C291.401 322.421 290.671 322.649 290.287 323.623C290.076 324.149 289.792 324.549 289.21 324.552C288.591 324.563 287.997 324.351 287.76 323.723C287.479 322.994 287.278 322.235 287.097 321.463C286.639 319.557 285.584 318.04 283.807 317.246C282.124 316.495 280.335 315.945 278.573 315.42C277.613 315.128 276.586 315.082 275.574 314.917C274.986 314.812 274.856 315.166 274.732 315.627L274.177 315.99Z" fill="currentColor"/>
</g></svg>
