<svg width="407" height="329" viewBox="0 0 407 329" fill="none" xmlns="http://www.w3.org/2000/svg">
<path d="M189.32 116.01C176.906 144.561 152.062 149.44 131.916 140.681C111.769 131.922 99.388 111.86 111.801 83.3082C124.214 54.7568 156.721 28.5286 176.868 37.2876C197.014 46.0467 201.733 87.4583 189.32 116.01Z" fill="#2A5473"/>
<path d="M169.547 266.493C165.101 270.62 145.562 282.165 138.634 285.344C134.06 288.733 114.731 297.925 108.923 299.302C112.452 291.551 114.151 282.7 121.195 273.347C131.737 256.253 142.773 244.288 149.278 235.962C155.172 228.42 168.475 215.28 174.078 207.806C181.081 198.465 186.247 191.095 201.516 174.416C213.941 162.026 234.957 137.298 241.06 127.402C247.164 117.505 260.885 107.339 273.976 104.235C286.684 102.759 293.898 105.658 303.396 114.928C311.628 122.963 311.705 130.158 312.117 138.751C312.646 148.808 299.338 165.82 291.12 170.073C278.479 181.519 260.648 192.602 250.74 203.843C238.198 212.577 228.509 220.679 218.964 228.659C193.315 250.104 178.44 262.08 169.547 266.493Z" fill="#2A5473"/>
<path d="M292.643 113.978C293.216 114.355 293.663 114.469 294.147 113.989C295.554 112.589 297.194 111.332 298.289 109.699C299.917 107.248 301.382 104.702 301.507 101.544C301.57 99.6174 300.727 98.5694 299.329 97.5282C298.65 97.0302 298.061 96.2398 297.726 95.4658C297.219 94.2549 297.53 93.8206 298.758 93.2466C299.239 93.0363 299.711 92.7543 300.102 92.4103C300.924 91.7393 301.034 90.6532 300.222 89.7917C299.343 88.8549 298.344 88.024 297.282 87.3026C295.116 85.8428 292.687 84.7211 290.98 82.723C289.842 81.4004 289.15 79.7374 289.308 77.8878C289.399 76.8715 289.897 76.1654 290.926 76.0612C292.098 75.9379 293.29 75.9295 294.463 76.0192C296.512 76.1654 298.006 75.1968 299.137 73.6654C299.99 72.5136 299.622 71.127 299.262 69.8403C298.831 68.3219 298.343 66.7999 298.672 65.1742C299.164 62.7357 301.569 61.2579 303.671 61.0099C305.888 60.741 307.743 61.2721 308.868 63.2753C309.824 65.0262 309.99 66.9109 309.038 68.7661C308.214 70.3741 307.292 71.9615 306.496 73.5713C304.528 77.6042 304.156 81.7542 305.521 86.0585C306.613 89.5075 306.885 93.1169 306.198 96.636C305.726 98.9764 304.539 101.172 303.605 103.411C303.087 104.67 302.525 105.94 301.801 107.086C301.156 108.109 300.291 109.004 299.428 109.872C297.852 111.474 296.195 113.014 294.632 114.631C294.435 114.831 294.382 115.467 294.541 115.647C294.848 115.965 295.32 116.35 295.81 115.786C297.197 114.242 298.613 112.701 300.001 111.158C300.183 110.971 300.325 110.738 300.52 110.566C302.787 108.356 305.107 106.205 307.279 103.917C309.07 102.045 310.81 100.085 311.718 97.5735C312.388 95.7001 311.904 93.9085 310.999 92.246C310.081 90.5685 308.859 88.9991 308.188 87.2381C307.137 84.5015 307.107 81.5608 308.684 79.0218C309.82 77.1925 311.808 76.27 314.07 76.4156C315.314 76.4957 316.583 76.6342 317.801 76.8972C319.874 77.343 320.88 76.0023 321.764 74.5827C322.6 73.2311 322.439 72.1702 321.284 70.6478C320.431 69.5281 319.235 68.6844 318.218 67.682C317.817 67.287 317.374 66.8752 317.149 66.3781C316.575 65.1201 316.571 63.8138 317.3 62.5831C317.809 61.7072 318.319 60.8031 319.004 60.0664C320.269 58.6572 321.954 58.2688 323.796 58.3306C325.439 58.3796 327.094 58.472 328.659 57.7351C331.395 56.4206 332.648 52.4836 330.481 50.1152C328.262 47.6866 325.922 45.3639 323.659 42.9467C323.167 42.4181 322.809 41.7705 322.407 41.1625C321.436 39.6661 322.159 38.3072 322.809 36.9862C323.845 34.9234 325.817 34.2554 327.875 33.8058C329.285 33.4991 330.745 33.3091 332.153 33.0307C335.386 32.4012 336.892 29.8718 335.954 26.6881C335.592 25.4297 334.986 24.2265 334.782 22.9357C334.443 20.8554 334.106 18.7467 334.179 16.6504C334.23 15.3759 334.948 14.1019 335.548 12.9053C336.003 11.9693 336.653 11.1026 337.368 10.3394C337.976 9.69705 338.864 9.34252 339.511 8.74535C341.437 6.99537 343.72 6.34735 346.377 6.30547C349.092 6.23895 351.664 6.64592 354.061 7.82239C355.563 8.55792 357.115 9.38193 358.295 10.5084C360.518 12.6391 361.476 15.5117 361.559 18.5125C361.616 20.3334 361.131 22.2045 360.664 24.0058C360.097 26.2692 359.433 28.5121 358.574 30.6857C357.09 34.4517 355.524 38.1839 353.82 41.8505C352.314 45.0756 350.573 48.1862 348.929 51.3455C347.8 53.516 346.711 55.7315 345.473 57.8381C344.521 59.452 343.392 60.9551 342.289 62.4883C340.891 64.4143 339.468 66.3102 338.044 68.206C337.487 68.9368 336.903 69.6658 336.278 70.3496C334.208 72.6014 332.071 74.7779 330.042 77.0465C328.167 79.1262 326.358 81.2812 324.523 83.4061C324.033 83.9709 323.597 84.5959 323.134 85.1907C323.229 85.2678 323.295 85.343 323.39 85.4201C323.991 85.1039 324.633 84.8329 325.194 84.4716C326.081 83.904 327.051 83.3702 327.806 82.6522C329.208 81.3369 330.49 79.8863 331.797 78.494C332.009 78.2805 332.153 78.02 332.352 77.7915C334.481 75.5151 336.691 73.3007 338.697 70.9455C341.299 67.9045 343.994 64.969 347.209 62.5638C348.951 61.2704 350.849 60.186 352.708 59.0563C353.785 58.4016 354.848 57.7319 355.986 57.2373C359.137 55.8785 362.335 56.2689 365.43 57.391C367.707 58.2191 369.794 59.3472 371.527 61.1624C373.714 63.4327 372.911 66.7598 371.545 68.631C370.678 69.7961 369.686 70.9106 368.552 71.8029C367.416 72.7235 366.117 73.5201 364.763 74.0718C362.839 74.8849 360.812 75.521 358.788 76.1006C356.505 76.7486 354.409 75.7618 352.248 75.1258C350.673 74.6694 349.002 74.3773 347.381 74.4149C346.656 74.4392 345.736 75.3028 345.266 76.0108C344.218 77.5759 344.021 79.3804 344.359 81.2477C345.073 85.2971 343.212 89.4221 339.911 91.6088C338.193 92.7476 336.211 92.4354 334.261 92.0685C332.535 91.7444 330.734 91.4865 328.986 91.5301C327.65 91.5576 326.559 92.4386 326.148 93.7892C326.007 94.2344 326.168 94.8411 326.323 95.3195C326.748 96.7097 326.923 97.9987 326.03 99.3467C325.388 100.313 324.575 100.602 323.602 100.497C322.318 100.371 321.041 100.133 319.781 99.853C317.974 99.4669 316.28 99.7837 314.916 100.931C311.259 104.046 307.494 107.069 304.186 110.519C302.289 112.483 300.169 114.164 298.234 116.055C297.253 117 295.512 117.144 294.335 116.443C294.144 116.317 293.87 116.158 293.853 115.986C293.703 114.969 292.817 114.841 292.146 114.442L292.643 113.978Z" fill="#2A5473"/>
<path d="M299.32 121.165C299.28 121.12 299.18 121.128 299.141 121.083C298.333 119.923 297.299 118.962 296.191 118.068C296.015 117.928 295.931 117.682 295.802 117.475C296.015 117.474 296.215 117.459 296.428 117.458C296.559 117.637 296.691 117.787 296.809 117.951C297.175 118.457 297.61 118.528 298.078 118.09C299.89 116.332 301.65 114.515 303.515 112.818C304.703 111.744 305.679 110.43 307.28 109.795C308.358 109.353 309.264 108.475 310.217 107.769C313.911 104.969 317.994 103.457 322.711 103.605C325.233 103.682 327.696 103.117 330.005 102.045C330.152 101.969 330.285 101.878 330.434 101.774C331.951 100.651 333.444 99.4692 334.987 98.4044C337.226 96.8591 339.504 95.3873 341.741 93.8704C342.867 93.1195 343.967 92.3101 345.108 91.546C347.419 89.9911 349.741 88.4797 352.039 86.9098C353.67 85.7939 355.388 84.8682 357.326 84.5244C360.111 84.0223 362.933 83.3806 365.666 84.6355C367.169 85.3427 368.541 86.3255 369.947 87.2252C370.426 87.5257 370.902 87.8545 371.303 88.2495C373.039 90.0081 373.292 92.1113 372.737 94.418C372.259 96.389 370.861 97.6476 369.206 98.4639C367.653 99.2441 365.972 99.1216 364.276 98.3168C362.759 97.5945 361.112 97.1477 359.493 96.7028C358.251 96.3531 356.736 97.2067 356.444 98.4798C356.167 99.7397 355.913 101.086 356.062 102.345C356.29 104.39 355.493 105.787 353.845 106.731C352.565 107.458 351.281 106.878 350.051 106.331C348.726 105.734 347.432 105.083 346.071 104.598C344.336 103.961 343.145 104.85 342.761 106.926C342.461 108.554 341.252 109.966 339.804 109.958C338.868 109.955 337.901 109.523 337.017 109.126C336.037 108.679 335.173 107.971 334.194 107.496C332.844 106.841 332.022 107.271 331.522 108.701C330.932 110.423 330.436 110.647 328.553 110.568C326.967 110.495 325.767 109.708 324.497 108.902C322.488 107.651 320.305 106.928 317.939 107.997C316.844 108.48 316.592 109.344 317.295 110.355C317.673 110.904 317.881 111.443 317.504 112.015C317.111 112.628 316.516 113.073 315.746 112.896C314.85 112.696 313.975 112.398 313.101 112.072C310.935 111.28 308.761 111.324 306.825 112.548C304.993 113.708 303.288 115.103 301.627 116.487C300.714 117.237 300 118.213 299.179 119.098C298.693 119.606 298.955 119.963 299.326 120.385L299.32 121.165Z" fill="#2A5473"/>
<path d="M76.4365 140.717C97.5102 152.163 99.5829 171.555 91.5063 186.425C83.4297 201.295 67.2016 209.446 46.128 198C25.0544 186.554 7.11529 159.846 15.1919 144.975C23.2685 130.105 55.3629 129.271 76.4365 140.717Z" fill="#2A5473"/>
</svg>
