<svg width="346" height="295" viewBox="0 0 346 295" fill="none" xmlns="http://www.w3.org/2000/svg" style="color: #2A5473"><g id="illustration">
<path d="M13.1295 165.809C15.6298 170.943 10.8886 171.648 17.1153 176.354C21.7046 179.823 15.0062 184.572 25.0339 184.001C31.7118 177.596 43.9448 164.299 50.7132 160.948C78.435 178.435 102.543 176.182 120.728 141.729C128.343 146.298 149.687 148.221 154.262 148.528C156.003 140.333 154.322 143.227 151.755 139.396C149.901 136.629 157.073 130.946 151.475 127.834C146.252 124.931 153.696 118.863 151.075 117.032C144.343 112.329 151.349 107.5 144.418 102.128C132.162 113.13 128.229 116.028 116.55 126.509C81.487 92.8509 52.4315 116.83 45.9123 143.458C33.4487 143.137 16.327 139.336 6.07332 140.104C-0.459356 152.081 13.07 148.367 10.3442 155.662C7.61834 162.958 10.9306 161.295 13.1295 165.809Z" fill="currentColor"/>
<path d="M201.552 238.971C200.835 243.543 197.356 241.815 199.315 247.829C200.759 252.262 194.105 252.315 201.037 256.583C208.445 255.419 222.74 252.247 228.793 253.155C239.121 277.628 256.194 287.301 284.25 272.821C287.196 279.387 300.496 290.557 303.395 292.881C308.35 288.239 305.892 289.384 305.96 285.648C306.01 282.949 313.412 282.494 311.132 277.83C309.004 273.48 316.766 272.895 315.871 270.463C313.575 264.217 320.471 264.252 318.352 257.469C305.105 259.105 301.147 259.209 288.525 260.766C280.809 222.139 250.379 224.618 233.706 239.301C225.568 233.312 215.945 222.851 208.772 218.61C198.878 223.546 209.595 227.347 204.402 230.934C199.209 234.521 202.182 234.951 201.552 238.971Z" fill="currentColor"/>
<path d="M227.362 61.1355C230.915 64.6888 227.362 73.5719 214.926 100.221C210.061 110.645 186.5 146.413 205.154 154.408C215.769 158.957 230.027 129.535 235.357 129.535C238.91 129.535 234.447 161.515 248.671 164.18C265.23 167.283 262.037 145.533 266.468 114.441C268.833 97.8502 268.189 83.3288 273.586 85.1276C278.915 86.9042 285.133 88.6855 293.128 90.4574C299.229 91.8095 306.244 92.6217 309.117 86.9088C312.453 80.2762 304.238 76.2491 297.569 71.8031C284.244 62.92 270.031 65.5849 279.772 54.0299C314.458 12.8866 243.352 -7.33794 243.352 40.6009C243.352 51.3651 231.94 34.6513 214.926 31.8223C198.967 29.1687 199.825 43.3694 211.373 48.7001C217.991 51.7553 220.685 54.4585 227.362 61.1355Z" fill="currentColor"/>
<circle cx="109.501" cy="202.5" r="1.5" fill="currentColor"/>
<circle cx="121.501" cy="214.5" r="1.5" fill="currentColor"/>
<circle cx="133.501" cy="197.5" r="1.5" fill="currentColor"/>
<circle cx="102.709" cy="218.465" r="1.5" transform="rotate(137.456 102.709 218.465)" fill="currentColor"/>
<circle cx="85.7525" cy="217.738" r="1.5" transform="rotate(137.456 85.7525 217.738)" fill="currentColor"/>
<circle cx="93.1196" cy="235.12" r="1.5" transform="rotate(137.456 93.1196 235.12)" fill="currentColor"/>
<circle cx="133.077" cy="233.847" r="1.5" transform="rotate(137.456 133.077 233.847)" fill="currentColor"/>
<circle cx="116.12" cy="233.12" r="1.5" transform="rotate(137.456 116.12 233.12)" fill="currentColor"/>
<circle cx="123.12" cy="247.12" r="1.5" transform="rotate(137.456 123.12 247.12)" fill="currentColor"/>
<circle cx="343.077" cy="181.847" r="1.5" transform="rotate(137.456 343.077 181.847)" fill="currentColor"/>
<circle cx="326.12" cy="181.12" r="1.5" transform="rotate(137.456 326.12 181.12)" fill="currentColor"/>
<circle cx="333.12" cy="195.12" r="1.5" transform="rotate(137.456 333.12 195.12)" fill="currentColor"/>
<circle cx="334.952" cy="171.884" r="1.5" transform="rotate(158.62 334.952 171.884)" fill="currentColor"/>
<circle cx="319.401" cy="165.085" r="1.5" transform="rotate(158.62 319.401 165.085)" fill="currentColor"/>
<circle cx="314.425" cy="185.29" r="1.5" transform="rotate(158.62 314.425 185.29)" fill="currentColor"/>
</g></svg>
