<svg width="382" height="327" viewBox="0 0 382 327" fill="none" xmlns="http://www.w3.org/2000/svg" style="color: #2A5473">
<g id="illustration">
<path d="M308.725 19.0625C308.725 19.0625 310.225 20.6388 308.721 37.1856C328.974 62.0056 331.598 65.9453 331.598 71.0669C332.367 87.2039 336.473 192.41 334.598 219.2C313.975 234.958 303.101 244.808 303.101 244.808C303.101 244.808 294.101 244.808 270.853 236.928C242.356 231.413 227.4 223.546 227.4 223.546C225.526 190.846 224.498 205.557 224.026 162.086C224.026 162.086 220.651 98.6572 224.78 71.0663C240.529 47.4407 228.905 65.9573 254.772 31.6822C254.772 12.7586 257.095 12.7586 257.095 12.7586L308.725 19.0625Z" fill="currentColor"/>
<path d="M155.48 218.848C155.48 218.848 155.244 222.638 162.682 223.509C165.831 223.877 170.308 220.967 171.156 216.73C195.648 235.175 222.291 259.015 235.539 273.31C232.589 277.316 233.088 280.111 234.284 281.553C235.545 283.074 237.012 284.247 238.521 284.095C242.334 281.553 242.334 281.553 243.605 283.248C235.979 322.65 241.47 304.855 235.539 326.462C137.669 301.042 85.1324 282.823 85.1324 282.823C85.1324 282.823 70.9069 276.983 53.7965 270.537C55.0774 267.478 55.3361 264.93 54.2301 263.241C52.8432 261.122 51.688 260.275 47.4512 260.699C44.8869 260.955 43.2045 262.911 41.9334 266.268C32.8046 262.928 23.4516 259.633 15.2253 256.979C6.75549 218.423 12.6623 219.27 12.6623 219.27C33.8537 197.662 30.4643 201.475 57.1584 185.918C57.1584 185.918 60.5482 181.987 110.974 170.126C138.956 193.428 142.112 195.275 148.279 199.783C159.293 207.833 161.411 210.375 161.411 210.375L156.327 213.341L155.48 218.848Z" fill="currentColor"/>
</g>
</svg>
