<svg width="373" height="357" viewBox="0 0 373 357" fill="none" xmlns="http://www.w3.org/2000/svg">
<path d="M252.893 191.669C255.488 193.511 259.702 196.573 262.213 197.16C264.68 195.602 264.854 194.379 263.511 191.862C261.501 191.145 258.983 190.586 256.81 189.274C252.112 186.439 249.268 185.773 246.632 184.839C243.336 183.672 242.059 183.339 238.322 184.508C233.484 187.779 227.115 188.013 221.743 191.451C212.743 198.332 210.386 199.618 218.216 198.965C216.919 201.715 210.535 204.335 206.231 207.439C201.826 206.473 194.485 211.113 196.322 216.985C189.782 216.687 185.612 222.094 186.414 226.532C179.873 226.233 175.704 231.64 177.039 235.911C171.567 235.278 166.028 238.183 168.199 245.123C162.759 242.722 155.419 247.362 157.924 255.37C151.583 253.837 146.211 257.275 147.481 265.084C138.838 263.684 134.494 268.548 135.804 274.597C129.998 272.897 125.519 275.458 125.754 281.831C120.282 281.199 116.544 282.367 116.413 289.442C110.606 287.741 105.034 292.415 105.47 297.553C98.2496 295.123 95.1406 300.173 94.341 305.112C84.6984 309.886 83.4711 310.953 79.3296 313.334C74.8587 315.905 70.6583 318.787 66.0778 321.57C62.1353 323.965 56.6357 325.111 51.5974 329.616C56.671 332.719 61.0131 334.337 67.2524 334.684C72.0243 334.95 77.8561 334.847 84.2376 334.647C88.1521 334.524 92.2208 333.945 95.9758 332.771C99.1636 331.773 103.958 330.237 107.895 327.833C111.832 325.43 113.093 325.658 117.563 323.088C122.034 320.517 129.208 315.343 133.145 312.939C137.547 310.252 144.488 304.234 148.225 301.189C152.895 297.384 156.401 293.441 164.605 286.102C169.643 281.596 180.866 271.46 185.49 266.676C190.36 261.636 194.126 257.418 200.469 250.855C205.339 245.815 212.918 238.936 218.851 232.797C223.722 227.757 229.893 219.38 232.428 216.242C234.429 213.272 234.571 213.777 236.238 209.738C233.784 228.126 238.373 209.071 242.576 201.895C243.372 199.493 246.133 192.614 247.234 190.512C248.835 190.011 250.604 190.044 252.893 191.669Z" fill="#2A5473"/>
<path d="M343.964 158.156C346.816 159.157 351.465 160.846 353.911 160.723C355.754 158.654 355.592 157.492 353.706 155.547C351.683 155.42 349.238 155.57 346.911 154.943C341.878 153.587 339.108 153.726 336.456 153.565C333.142 153.365 331.889 153.395 328.784 155.443C325.227 159.698 319.474 161.583 315.473 166.13C309.062 174.772 307.248 176.565 314.224 173.914C313.762 176.764 308.622 180.831 305.508 184.794C301.233 185.067 295.75 191.229 298.968 196.107C292.919 197.55 290.532 203.58 292.428 207.42C286.379 208.864 283.992 214.893 286.332 218.441C281.17 219.3 276.877 223.404 280.679 229.17C275.084 228.405 269.601 234.566 273.988 241.219C267.798 241.483 263.797 246.031 267.005 252.825C258.749 253.815 256.059 259.394 258.842 264.572C253.096 264.544 249.68 268.056 251.567 273.812C246.405 274.671 243.301 276.718 245.036 283.21C239.29 283.181 235.43 288.909 237.176 293.485C229.948 293.161 228.435 298.586 229.001 303.304C221.451 310.192 220.611 311.488 217.455 314.748C214.049 318.268 210.971 322.001 207.52 325.742C204.55 328.963 199.83 331.451 196.413 336.886C201.859 338.387 206.247 338.725 212.033 337.405C216.458 336.395 221.755 334.771 227.527 332.914C231.068 331.775 234.63 330.179 237.749 328.122C240.398 326.376 244.371 323.715 247.334 320.488C250.297 317.261 251.508 317.139 254.914 313.62C258.321 310.101 263.511 303.496 266.474 300.269C269.787 296.661 274.544 289.346 277.156 285.587C280.421 280.888 282.587 276.369 288.15 267.518C291.566 262.083 299.151 249.886 302.117 244.306C305.24 238.428 307.571 233.59 311.639 225.935C314.762 220.056 319.875 211.789 323.68 204.629C326.804 198.751 330.239 189.485 331.73 185.956C332.778 182.719 333.039 183.143 333.501 179.02C336.085 196.448 335.275 177.85 337.229 170.197C337.325 167.796 338.041 160.793 338.494 158.585C339.824 157.708 341.447 157.274 343.964 158.156Z" fill="#2A5473"/>
<path d="M184.893 145.038C184.893 145.038 241.316 136.451 246.625 84.7639C244.144 62.9148 250.793 57.9937 218.673 28.9828C186.181 15.8637 178.442 20.8788 159.739 26.9704C131.184 40.9421 123.257 78.1929 123.257 78.1929C123.257 78.1929 117.195 111.568 110.951 122.329C91.783 133.196 97.6058 139.494 97.6058 139.494C67.6017 178.605 65.3856 163.892 51.8415 174.483C51.8415 174.483 35.0243 195.579 64.0364 202.439C68.2824 215.475 77.3688 231.449 91.1717 219.349C99.1354 212.368 89.9291 196.862 122.82 165.036C131.651 171.267 143.155 152.633 143.155 152.633L184.893 145.038Z" fill="#2A5473"/>
</svg>
