<svg width="357" height="333" viewBox="0 0 357 333" fill="none" xmlns="http://www.w3.org/2000/svg" style="color: #2A5473"><g id="illustration">
<path d="M160.335 164C186.629 209.543 183.971 230.446 151.835 249C130.642 261.236 111.087 259.581 91.8349 240.5C81.894 230.647 59.2852 224.508 50.3313 209C41.4468 193.611 50.0458 177.13 44.8361 161.999C34.6274 132.348 23.5039 108.458 44.7819 96.1735C79.832 72.5 83.5085 110.813 107.335 128C126.14 141.565 148.736 143.911 160.335 164Z" fill="currentColor"/>
<path d="M263.555 126.789C254.042 166.165 231.379 162.719 203.595 156.006C190.336 152.803 185.494 133.905 178.055 123.289C169.904 111.658 159.986 107.564 164.959 86.9778C169.511 68.1359 188.727 64.4449 201.555 50.2889C215.536 34.8619 194.054 5.78896 228.557 10.2891C246.566 14.6399 271.642 19.789 273.554 75.289C275.818 89.7495 266.902 112.935 263.555 126.789Z" fill="currentColor"/>
<path d="M277.977 281.682C253.369 313.859 250.622 322.547 227.917 305.182C217.082 296.897 206.492 285.899 203.975 273.182C201.218 259.25 204.611 240.505 217.476 223.683C229.252 208.285 251.523 217.95 268.977 210.182C287.998 201.717 294.23 167.128 323.975 185.182C338.691 196.437 338.646 207.639 317.977 259.182C314.206 273.325 286.635 270.361 277.977 281.682Z" fill="currentColor"/>
<circle cx="106.5" cy="64.5" r="1.5" fill="currentColor"/>
<circle cx="118.5" cy="76.5" r="1.5" fill="currentColor"/>
<circle cx="130.5" cy="59.5" r="1.5" fill="currentColor"/>
<circle cx="303.607" cy="140.782" r="1.5" transform="rotate(-60.8934 303.607 140.782)" fill="currentColor"/>
<circle cx="319.927" cy="136.135" r="1.5" transform="rotate(-60.8934 319.927 136.135)" fill="currentColor"/>
<circle cx="310.911" cy="117.381" r="1.5" transform="rotate(-60.8934 310.911 117.381)" fill="currentColor"/>
</g></svg>
