<svg width="393" height="317" viewBox="0 0 393 317" fill="none" xmlns="http://www.w3.org/2000/svg">
<path d="M339.172 19.8728C341.87 17.799 343.595 16.3065 346.031 13.5813C344.942 12.6948 342.382 3.27219 341.593 4.18287C334.443 4.9525 333.208 4.21455 325.065 5.2372C317.42 8.23879 315.695 9.73129 308.796 15.7013C307.095 18.1224 295.821 31.3741 294.514 34.0811C292.354 38.485 281.717 54.1883 278.515 58.1628C274.465 58.2517 265.809 62.242 261.741 62.4386C251.82 62.8269 248.418 72.1521 242.512 82.08C233.413 100.192 226.805 123.244 215.215 136.415C212.009 140.072 200.958 150.35 197.526 153.771C194.206 157.055 181.703 166.014 175.79 171.732C169.878 177.45 164.206 179.949 156.319 186.171C151.062 190.318 146.708 193.885 136.708 200.051C130.344 203.975 125.565 207.344 116.88 213.069C107.476 219.273 103.571 222.778 91.9783 226.786C84.0845 228.798 78.4127 231.297 69.5321 233.56C60.6515 235.824 57.392 235.602 49.0593 239.831C51.9997 247.505 56.9174 246.251 59.6524 248.713C67.9086 252.925 64.3297 250.679 71.2596 253.124C79.8838 254.084 82.1058 254.57 87.288 254.302C93.7055 254.772 96.9173 255.006 103.086 254.487C109.255 253.967 113.199 252.962 117.159 251.952C121.093 250.95 123.035 250.455 129.724 247.697C134.452 245.747 141.316 243.689 145.066 241.68C150.687 239.195 156.351 237.846 160.356 235.677C167.702 231.699 173.097 227.89 181.56 223.956C190.022 220.021 198.078 214.481 206.213 209.249C214.348 204.017 215.576 200.545 235.792 189.075C252.296 171.182 250.954 176.607 257.484 166.7C264.508 156.078 283.64 134.074 290.724 123.484C295.022 117.085 296.077 115.46 299.569 108.597C304.2 99.6405 307.718 97.3851 305.7 87.03C304.704 81.9762 302.466 80.538 300.758 75.6553C299.671 72.6225 292.538 66.3156 291.358 63.3119C294.062 57.3585 300.003 47.572 304.645 40.9742C310.061 33.2768 311.429 32.7037 316.542 25.6412C320.751 19.7805 322.435 21.0596 328.048 17.1108C328.423 16.8404 338.532 20.277 339.172 19.8728Z" fill="#2A5473"/>
<path d="M96.6353 122.794C91.7874 118.442 84.182 117.234 77.9633 116.539C73.8043 116.539 66.4971 116.545 65.5101 117.234C68.9693 114.454 71.0478 113.758 75.1988 106.807C77.9633 102.179 78.6581 98.9804 78.6581 92.9063C73.1233 93.6014 68.9722 94.9915 64.1293 97.0767C60.6701 99.8569 58.5006 101.768 55.7333 107.329C55.6394 103.679 56.4251 98.2928 55.7333 93.4275C54.7449 86.4769 52.274 79.5264 48.8148 75.3561C43.9719 80.2215 42.034 92.0443 41.8963 93.4275C41.2045 100.378 41.2045 101.073 41.8963 105.243C40.5126 103.158 39.1289 101.768 36.3615 99.6829C33.5942 97.5978 30.8268 96.2077 28.0594 94.8176C21.9648 91.7562 16.298 90.6472 16.298 90.6472C16.298 90.6472 16.9898 95.5126 18.3735 99.6829C21.1409 107.329 24.6001 110.804 24.6001 110.804C27.3675 113.584 30.1349 115.669 31.5186 116.364C32.9023 117.059 29.4431 116.279 21.8328 117.234C17.6817 117.754 14.7038 118.752 11.4551 119.839C9.37952 120.535 5.22844 122.62 2.46105 124.705C3.84474 126.095 6.92858 127.591 10.7632 128.875C14.5978 130.159 16.38 131.039 21.2344 131.648C26.7708 132.343 29.4447 131.655 33.5958 130.96C28.1441 134.428 24.6871 137.722 21.8328 142.074C19.0229 146.357 15.6909 153.195 16.3827 158.242C22.4346 157.22 31.5125 152.5 31.5125 152.5C31.5125 152.5 39.8989 144.854 41.9744 140.684C44.05 136.513 41.2826 146.939 42.6663 153.89C44.05 160.84 50.1985 170.578 50.1985 170.578C52.3863 170.578 55.8365 161.54 57.1169 154.592C57.8869 150.414 57.8869 145.549 57.1169 140.17C59.1925 143.471 63.8846 147.368 66.9025 149.727C69.5702 151.812 71.6457 153.202 73.7213 154.592C77.1805 156.677 79.256 157.372 83.5152 158.242C83.1999 155.028 82.815 151.804 81.4313 148.329C80.137 145.078 77.9633 142.074 76.5667 140.17C74.1027 136.812 71.032 133.733 66.9025 130.44C71.7454 130.44 77.7101 130.367 81.4313 129.745C85.5868 129.049 91.0955 128.173 96.6353 122.794Z" fill="#2A5473"/>
<path d="M334.307 238.989C331.002 236.022 325.818 235.198 321.578 234.724C318.743 234.725 313.762 234.729 313.089 235.198C315.447 233.303 316.864 232.829 319.694 228.091C321.578 224.935 322.052 222.755 322.052 218.615C318.279 219.089 315.449 220.036 312.148 221.458C309.79 223.353 308.311 224.656 306.425 228.446C306.361 225.959 306.896 222.287 306.425 218.97C305.751 214.232 304.067 209.494 301.709 206.651C298.407 209.968 297.086 218.027 296.993 218.97C296.521 223.708 296.521 224.182 296.993 227.025C296.049 225.603 295.106 224.656 293.22 223.234C291.333 221.813 289.447 220.865 287.56 219.918C283.406 217.831 279.543 217.075 279.543 217.075C279.543 217.075 280.015 220.392 280.958 223.234C282.844 228.446 285.202 230.815 285.202 230.815C287.089 232.71 288.975 234.132 289.918 234.605C290.862 235.079 288.504 234.548 283.316 235.198C280.486 235.553 278.456 236.233 276.242 236.974C274.827 237.448 271.997 238.87 270.111 240.291C271.054 241.239 273.156 242.258 275.77 243.134C278.384 244.009 279.599 244.609 282.908 245.024C286.682 245.498 288.505 245.029 291.334 244.555C287.618 246.919 285.262 249.164 283.316 252.131C281.4 255.051 279.129 259.712 279.601 263.152C283.726 262.455 289.914 259.238 289.914 259.238C289.914 259.238 295.631 254.026 297.046 251.183C298.461 248.34 296.574 255.447 297.517 260.185C298.461 264.923 302.652 271.562 302.652 271.562C304.143 271.562 306.495 265.4 307.368 260.664C307.893 257.816 307.893 254.5 307.368 250.833C308.783 253.084 311.981 255.74 314.039 257.348C315.857 258.769 317.272 259.717 318.687 260.664C321.045 262.086 322.46 262.559 325.363 263.152C325.148 260.962 324.886 258.764 323.942 256.395C323.06 254.179 321.578 252.131 320.626 250.833C318.947 248.544 316.854 246.445 314.039 244.2C317.34 244.2 321.406 244.151 323.942 243.726C326.775 243.253 330.53 242.655 334.307 238.989Z" fill="#2A5473"/>
<path d="M167.974 73.5306C166.515 75.9911 166.376 76.5714 164.569 77.5549C161.848 75.7194 162.169 75.7184 161.373 73.5703C160.577 71.4222 160.814 70.3825 161.373 60.3913C161.677 54.9639 162.554 53.7511 162.513 46.4154C160.442 44.6468 160.802 45.4933 159.091 43.7743C157.877 42.5549 156.235 40.3363 156.81 36.3253C157.008 34.9456 156.724 34.9765 159.657 36.3253C159.662 34.0333 159.026 30.3093 162.37 27.8365C163.774 26.6999 165.877 26.1545 167.914 26.3751C170.45 26.6498 171.781 28.5979 172.912 30.0093C174.043 31.4206 174.231 36.8573 174.766 36.6575C176.97 35.8335 177.011 36.1458 176.962 38.2627C176.852 43.0934 171.934 44.9234 169.86 46.4154C167.617 55.5928 168.859 68.1632 167.974 73.5306Z" fill="#2A5473"/>
<path d="M376.638 124.188C379.531 123.971 380.093 123.749 381.965 124.686C382.033 128.036 381.845 127.769 380.528 129.69C379.212 131.611 378.212 132.021 369.6 137.392C364.921 140.309 363.403 140.284 357.344 144.605C357.087 147.372 357.579 146.576 357.153 149.013C356.852 150.741 355.972 153.412 352.309 155.275C351.05 155.916 351.242 156.136 350.645 152.892C348.742 154.227 346.026 156.936 342.021 155.583C340.258 155.071 338.577 153.63 337.569 151.796C336.315 149.513 337.153 147.261 337.662 145.49C338.171 143.718 342.57 140.383 342.091 140.053C340.12 138.69 340.355 138.473 342.139 137.276C346.209 134.545 350.601 137.592 353.05 138.456C361.971 134.97 371.669 126.584 376.638 124.188Z" fill="#2A5473"/>
<path d="M161.275 292.686C158.698 291.293 158.1 291.176 157.015 289.358C158.767 286.474 158.783 286.804 160.939 285.888C163.096 284.973 164.168 285.17 174.39 285.3C179.943 285.37 181.22 286.22 188.705 285.85C190.417 283.638 189.569 284.046 191.247 282.207C192.438 280.902 194.629 279.111 198.748 279.524C200.165 279.666 200.121 279.375 198.875 282.457C201.215 282.36 204.987 281.538 207.66 284.872C208.883 286.268 209.533 288.41 209.399 290.518C209.232 293.142 207.303 294.6 205.913 295.828C204.524 297.056 198.983 297.494 199.211 298.035C200.15 300.269 199.834 300.325 197.671 300.37C192.736 300.472 190.648 295.488 189.033 293.418C179.566 291.517 166.792 293.358 161.275 292.686Z" fill="#2A5473"/>
</svg>
