<svg width="297" height="363" viewBox="0 0 297 363" fill="none" xmlns="http://www.w3.org/2000/svg" style="color: #2A5473"><g id="illustration">
<path d="M5.62127 209.93C4.35884 170.795 3.93803 131.239 3.93803 95.0318C3.93803 83.5675 3.40915 71.5733 3.93803 63.0497C5.62127 57.1767 7.56206 56.7372 10.671 52.5291C13.1958 49.1115 14.879 48.3397 16.9831 42.8616C14.3604 41.186 11.9334 40.3444 9.82934 37.8117C9.82934 34.0323 9.82934 34.0323 9.82934 32.3411C9.82934 29.4034 12.4697 28.9814 14.3604 28.9814C14.3604 23.5121 13.6166 20.5664 14.3604 12.9965C20.6725 9.2092 28.6165 5.42313 35.8217 4.16071C46.0757 2.36412 56.0205 2.05533 67.7725 2.05533C80.4274 2.05533 88.1931 2.1494 101.468 4.1607C115.354 6.26473 120.39 7.99712 127.159 12.9965C127.817 21.8279 128.063 26.952 128.657 28.9814C129.776 29.3955 131.904 28.3514 131.892 32.3411C131.886 34.0246 131.892 35.287 131.888 37.8117C129.776 39.9159 128.093 40.7576 124.305 42.8616C124.726 45.8072 131.475 50.0042 133.999 52.5291C135.765 54.295 137.779 58 139.455 63.0497C139.806 71.8965 140.008 89.5644 139.849 95.0318C139.456 108.499 139.123 206.621 137.343 210.758C131.031 224.224 127.243 227.591 119.67 232.639C109.978 239.099 104.93 241.07 85.573 241.901C71.6881 242.497 59.4169 243.175 44.7533 239.387C40.2714 238.229 32.1321 237.282 19.9287 229.287C16.259 226.883 8.56692 220.871 5.62127 209.93Z" fill="currentColor"/>
<path d="M262.352 233.73C256.465 233.73 239.629 235.19 233.552 236.512C228.961 237.51 221.856 240.375 212.151 246.023C204.006 250.764 190.241 260.886 184.144 265.839C179.917 269.274 173.376 273.079 169.084 277.729C165.913 281.164 160.893 284.599 154.552 296.489C148.489 307.856 147.543 309.661 142.398 314.984C134.736 322.91 129.716 325.552 124.695 327.666C119.675 329.78 104.615 335.592 95.6317 335.592C86.6497 335.592 77.9292 334.536 73.1733 333.214C68.1454 331.818 61.812 327.666 59.4341 324.495C55.2848 318.963 54.3157 314.259 56.7987 309.701C59.965 303.887 66.8378 298.263 72.9144 295.961C81.3652 292.761 88.4102 288.575 92.9682 287.505C101.957 285.395 108.296 283.417 117.279 281.96C127.055 280.374 131.114 279.138 135.51 276.94C140.266 274.562 144.494 272.712 148.457 269.277C151.391 266.734 156.119 263.2 160.875 259.237C164.574 256.155 169.427 250.26 174.879 246.023C179.634 242.327 184.883 237.975 189.675 233.872C193.963 230.2 197.321 227.738 202.111 224.358C206.602 221.187 212.173 218.479 216.907 215.638C223.512 211.675 232.722 209.158 238.044 207.448C243.197 205.792 256.803 204.541 262.352 204.541C266.844 204.541 274.514 205.914 277.15 206.655C281.684 207.931 293.008 214.846 293.01 218.549C293.012 222.795 287.981 229.378 284.282 231.091C279.635 233.243 269.222 233.73 262.352 233.73Z" fill="currentColoryyy"/>
</g></svg>
