<svg width="336" height="260" viewBox="0 0 336 260" fill="none" xmlns="http://www.w3.org/2000/svg" style="color: #2A5473"><g id="illustration">
<path d="M157.595 170.731C152.194 155.06 149.493 151.817 139.771 146.413C125.729 137.227 124.71 136.123 118.708 125.338C111.146 114.53 110.606 113.449 107.366 103.182C108.986 87.5102 112.227 90.2122 125.729 69.6772C133.831 59.95 140.498 45.7914 141.932 39.4147C141.932 27.526 141.932 25.9048 139.771 12.9355C125.729 3.74866 116.007 6.99103 102.505 9.69301C91.9483 13.9668 70.0987 27.5264 57.6764 39.4151C40.9334 63.1924 41.4735 64.2732 33.372 87.7678C30.1314 109.666 27.9559 107.432 30.1314 130.742C31.2261 155.258 33.372 159.923 49.575 179.377C76.5799 202.074 66.318 195.589 87.922 207.478C125.729 215.584 119.788 210.72 132.008 207.478C148.413 200.453 153.814 191.266 157.595 170.731Z" fill="currentColor"/>
<path d="M180.179 112.339C190.387 119.781 193.489 120.631 201.923 119.767C214.708 119.385 215.826 119.63 224.281 123.755C233.72 127.214 234.528 127.654 241.03 132.66C246.848 143.166 243.644 142.891 244.151 161.623C243.325 171.241 245.327 183.004 247.21 187.617C252.392 195.051 253.099 196.064 260.103 203.231C272.888 202.849 277.554 196.579 284.819 188.998C289.557 181.719 297.31 163.706 299.895 150.852C300.001 128.678 299.192 128.237 294.017 110.011C286.499 94.9038 288.833 95.3516 277.312 81.7253C265.942 66.8729 262.567 64.8922 243.955 59.7976C217.176 57.389 226.419 56.9661 207.728 58.959C180.554 70.3874 186.389 70.8362 180.161 78.1958C172.965 89.7472 173.592 97.8484 180.179 112.339Z" fill="currentColor"/>
<path d="M187.666 234.035C179.3 237.993 178.292 237.51 173.602 233.285C170.935 228.029 170.104 226.143 176.223 219.288C178.17 217.778 194.051 205.73 209.748 206.11C206.853 218.115 189.218 232.831 187.666 234.035Z" fill="currentColor"/>
<path d="M196.861 26.7401C188.615 22.5394 188.381 21.4461 188.857 15.1518C191.386 9.82838 192.371 8.0173 201.535 8.66887C203.921 9.28589 223.164 14.4881 232.46 27.1427C221.19 32.1906 198.763 27.2319 196.861 26.7401Z" fill="currentColor"/>
<path d="M223.494 176.036C230.935 181.54 230.985 182.657 229.476 188.787C226.103 193.62 224.833 195.243 215.902 193.088C213.651 192.086 195.53 183.778 188.45 169.763C200.4 166.645 221.7 175.237 223.494 176.036Z" fill="currentColor"/>
</g></svg>
