<svg width="418" height="390" viewBox="0 0 418 390" fill="none" xmlns="http://www.w3.org/2000/svg" style="color: #2A5473"><g id="illustration">
<path d="M325.81 20.8064C321.974 22.1389 320.192 23.8967 318.426 24.949C314.987 28.4904 315.223 30.6629 315.608 35.7069C321.301 36.886 323.11 33.7174 322.756 45.6964C322.506 54.1505 322.965 54.9546 319.916 62.8307C312.719 59.924 308.788 61.2365 307.246 62.3352C299.254 56.4261 296.993 52.6937 288.667 52.814C282.267 52.9065 275.333 56.4332 270.381 58.9523C265.428 61.4714 254.336 69.0996 248.458 79.2256C242.58 89.3515 240.554 100.275 241.536 107.204C242.518 114.132 249.689 129.454 250.602 135.313C251.579 141.577 250.674 148.89 250.32 155.814C249.966 162.739 247.994 167.042 246.728 173.157C245.583 178.684 248.437 182.021 250.991 186.803C253.962 192.366 255.996 193.511 258.575 194.754C261.831 196.324 266.453 194.261 268.796 193.328C268.912 196.188 269.99 197.829 271.607 200.291C273.224 202.753 272.544 202.612 275.521 205.355C278.099 206.598 279.318 207.56 282.577 208.944C284.476 210.042 283.934 209.253 287.195 210.605C290.202 211.852 292.855 212.066 295.353 212.295C298.052 212.542 298.892 212.323 301.072 212.065C303.828 211.74 305.432 211.55 308.856 208.714C310.637 206.957 312.407 205.194 312.407 205.194C315.479 206.955 318.384 207.141 320.424 207.564C324.502 208.409 326.249 208.829 330.082 208.855C333.621 208.879 336.44 206.973 341.36 203.737C346.28 200.5 346.884 192.828 348.69 187.53C350.496 182.233 354.514 171.013 358.641 164.778C362.768 158.543 363.98 155.249 371.163 145.393C376.815 135.22 387.212 123.167 385.485 112.569C382.77 91.4469 379.113 88.5627 371.286 78.434C365.799 73.0439 362.613 72.3841 352.814 71.7726C349.292 69.2341 350.597 68.9922 346.734 66.9687C344.319 65.7269 335.852 67.5034 333.396 66.333C331.637 61.1109 333.639 54.8897 335.017 48.2358C336.425 41.4378 337.922 38.9232 337.009 31.6318C336.231 25.6007 334.88 24.8101 333.147 23.0349C330.541 21.7863 329.197 21.5079 325.81 20.8064Z" fill="currentColor"/>
<path d="M210.649 291.048C213.474 296.417 219.522 318.291 220.784 325.809C222.862 331.108 226.693 352.165 226.507 358.132C219.945 352.703 211.844 348.754 204.653 339.514C190.901 324.877 182.229 311.102 175.888 302.65C170.145 294.993 160.93 278.722 155.177 271.364C147.986 262.166 142.219 255.256 130.101 236.166C121.382 220.938 102.993 194.199 95.0314 185.725C87.0697 177.251 80.835 161.353 81.2542 147.906C83.1442 135.252 87.8244 129.044 99.2518 122.294C109.156 116.443 116.122 118.246 124.525 120.09C134.372 122.203 147.323 139.488 149.284 148.531C157.037 163.721 163.084 183.825 171.351 196.322C176.511 210.709 181.804 222.176 187.018 233.473C201.029 263.828 208.71 281.312 210.649 291.048Z" fill="currentColor"/>
<path d="M95.5291 132.426C96.043 131.972 96.2697 131.57 95.9327 130.978C94.9482 129.254 94.1621 127.343 92.8713 125.86C90.9304 123.648 88.8543 121.571 85.8385 120.626C83.995 120.063 82.7632 120.603 81.3936 121.681C80.7357 122.206 79.8189 122.569 78.9843 122.691C77.683 122.864 77.3449 122.45 77.1112 121.115C77.0337 120.595 76.8846 120.067 76.6544 119.6C76.2211 118.631 75.2014 118.241 74.1578 118.801C73.0242 119.405 71.9615 120.152 70.9879 120.989C69.0136 122.7 67.2971 124.751 64.923 125.878C63.3491 126.632 61.5634 126.866 59.8189 126.231C58.8617 125.878 58.3099 125.213 58.4777 124.193C58.6643 123.029 58.9674 121.876 59.3599 120.767C60.0356 118.827 59.4903 117.132 58.3071 115.64C57.4174 114.517 55.9829 114.511 54.6468 114.523C53.0686 114.542 51.4721 114.616 49.9883 113.875C47.7627 112.764 46.9637 110.056 47.2727 107.962C47.5913 105.752 48.588 104.1 50.8152 103.536C52.7548 103.071 54.6177 103.401 56.1602 104.805C57.4975 106.02 58.7895 107.324 60.136 108.512C63.5158 111.464 67.425 112.905 71.9364 112.711C75.5508 112.557 79.1062 113.235 82.3242 114.817C84.4605 115.883 86.2699 117.601 88.1884 119.087C89.2681 119.916 90.3476 120.789 91.2649 121.787C92.0842 122.678 92.7231 123.746 93.3352 124.805C94.4707 126.745 95.5252 128.746 96.6788 130.677C96.8207 130.919 97.4201 131.137 97.636 131.03C98.0228 130.817 98.5182 130.461 98.1007 129.841C96.9728 128.099 95.8542 126.33 94.7263 124.588C94.5932 124.363 94.4062 124.166 94.2911 123.932C92.7482 121.167 91.2773 118.367 89.6354 115.673C88.2953 113.456 86.8565 111.264 84.6693 109.732C83.0356 108.597 81.1795 108.597 79.3387 109.037C77.4798 109.485 75.6459 110.256 73.7707 110.445C70.8548 110.745 68.0081 110.007 65.9684 107.822C64.4988 106.248 64.1268 104.089 64.8575 101.943C65.2594 100.763 65.7241 99.5737 66.296 98.466C67.2672 96.5809 66.2353 95.26 65.0953 94.0371C64.0086 92.8771 62.9424 92.756 61.1715 93.4733C59.8681 94.0048 58.7414 94.9399 57.5085 95.6597C57.0226 95.9441 56.5095 96.2641 55.971 96.3513C54.6066 96.578 53.3445 96.241 52.3467 95.2157C51.6339 94.4962 50.8942 93.7676 50.3616 92.9145C49.3314 91.325 49.396 89.5971 49.9361 87.8355C50.4122 86.2617 50.9331 84.688 50.6299 82.9853C50.0747 80.0011 46.6008 77.7648 43.7492 79.2385C40.8257 80.7476 37.973 82.4003 35.0492 83.9543C34.4105 84.2917 33.6921 84.4675 33.0003 84.6972C31.3022 85.2448 30.179 84.1921 29.0733 83.2201C27.3524 81.6812 27.2219 79.6032 27.3247 77.4994C27.3965 76.0581 27.5939 74.5994 27.6926 73.1671C27.9283 69.8819 25.8793 67.7685 22.5612 67.8432C21.252 67.8642 19.9323 68.1358 18.633 67.9957C16.5362 67.7804 14.4126 67.5559 12.408 66.9381C11.191 66.5565 10.1483 65.5311 9.14964 64.6401C8.36488 63.9561 7.69774 63.1024 7.14739 62.2135C6.68586 61.4592 6.57523 60.5096 6.16767 59.7287C4.98066 57.4132 4.95067 55.0401 5.6034 52.4642C6.24755 49.8256 7.31149 47.4485 9.07249 45.4416C10.1743 44.184 11.3748 42.8999 12.7699 42.0555C15.407 40.4645 18.4298 40.29 21.3484 40.9926C23.1211 41.4124 24.8008 42.3691 26.418 43.2897C28.4552 44.4271 30.447 45.6538 32.3212 47.0501C35.5699 49.4644 38.7643 51.9501 41.8593 54.5518C44.5797 56.8473 47.1285 59.3391 49.7496 61.7506C51.5504 63.4063 53.4052 65.0353 55.1159 66.7801C56.4255 68.1202 57.5819 69.6029 58.7742 71.0678C60.269 72.9191 61.7278 74.7881 63.1866 76.6571C63.7469 77.3849 64.2981 78.1396 64.7953 78.9208C66.429 81.507 67.9726 84.1375 69.6334 86.688C71.1519 89.0409 72.7604 91.3493 74.3329 93.6756C74.7504 94.2953 75.2399 94.8795 75.6935 95.4815C75.7925 95.4103 75.8825 95.3659 75.9816 95.2947C75.8333 94.6314 75.739 93.9415 75.5367 93.3049C75.2202 92.3006 74.9579 91.2249 74.4616 90.3093C73.5576 88.6129 72.4917 86.9963 71.4887 85.3711C71.3379 85.1107 71.124 84.9038 70.9552 84.6524C69.313 82.0035 67.7519 79.2923 66.0015 76.7414C63.7447 73.4361 61.6138 70.0686 60.1308 66.337C59.3365 64.3187 58.7848 62.203 58.1792 60.1139C57.8281 58.9035 57.4591 57.702 57.2785 56.4744C56.7886 53.0785 57.9998 50.0932 59.8907 47.3974C61.2839 45.4158 62.9176 43.695 65.1218 42.496C67.884 40.9772 70.8864 42.6203 72.3366 44.4266C73.2351 45.5679 74.0522 46.8162 74.6178 48.1439C75.2101 49.4808 75.6403 50.9423 75.8196 52.3937C76.1025 54.4634 76.1879 56.586 76.2195 58.6904C76.2495 61.0634 74.75 62.8297 73.5724 64.7496C72.7208 66.1516 72.0028 67.6885 71.6164 69.2628C71.4506 69.9694 72.0444 71.0824 72.6052 71.7207C73.8427 73.141 75.5332 73.8023 77.4241 73.963C81.5194 74.3305 85.0163 77.2026 86.266 80.9601C86.9173 82.9151 86.0989 84.7471 85.2359 86.5341C84.4728 88.1156 83.754 89.7868 83.3399 91.4863C83.0179 92.7832 83.5838 94.0662 84.7806 94.8148C85.1735 95.0673 85.8011 95.0701 86.3034 95.0455C87.7563 94.9983 89.0464 95.1652 90.1148 96.3788C90.8804 97.2508 90.9468 98.1108 90.5914 99.0225C90.1355 100.229 89.5723 101.4 88.9733 102.543C88.1292 104.187 87.9929 105.906 88.7449 107.521C90.7979 111.864 92.7339 116.287 95.201 120.381C96.603 122.725 97.6724 125.21 98.9936 127.571C99.6496 128.765 99.334 130.483 98.3507 131.436C98.1794 131.588 97.9539 131.811 97.7837 131.783C96.7623 131.662 96.4074 132.484 95.8481 133.028L95.5291 132.426Z" fill="currentColor"/>
<path d="M104.21 127.856C104.156 127.882 104.137 127.981 104.083 128.007C102.753 128.485 101.556 129.232 100.403 130.068C100.223 130.202 99.9626 130.218 99.729 130.289C99.7841 130.083 99.8212 129.887 99.8763 129.681C100.083 129.601 100.263 129.512 100.452 129.442C101.036 129.22 101.218 128.818 100.916 128.253C99.6928 126.045 98.3973 123.872 97.2457 121.628C96.5194 120.201 95.5053 118.916 95.3098 117.205C95.1646 116.049 94.5528 114.945 94.1204 113.842C92.3809 109.545 91.9866 105.209 93.3598 100.693C94.0922 98.2788 94.1887 95.7541 93.7561 93.245C93.7212 93.0837 93.6684 92.9312 93.6067 92.7608C92.9183 91.0026 92.1671 89.2532 91.5415 87.4864C90.634 84.9214 89.8074 82.3388 88.9267 79.7829C88.4954 78.5005 88.0012 77.2267 87.561 75.9264C86.663 73.2898 85.8097 70.6534 84.8937 68.0256C84.2418 66.1602 83.7964 64.2599 83.9701 62.2997C84.2119 59.4801 84.3286 56.5884 86.2529 54.2778C87.3278 53.0111 88.6346 51.9425 89.87 50.8198C90.2849 50.4366 90.7266 50.0625 91.2126 49.7781C93.3631 48.561 95.4594 48.8659 97.5414 50.0035C99.3196 50.9785 100.17 52.6568 100.526 54.4671C100.874 56.17 100.317 57.7614 99.0979 59.1886C98.005 60.4642 97.144 61.9378 96.2921 63.3846C95.6306 64.492 96.0594 66.1773 97.2122 66.7914C98.3562 67.3875 99.5898 67.984 100.844 68.1687C102.877 68.4823 104.018 69.6156 104.5 71.4534C104.867 72.8788 103.973 73.9673 103.123 75.0111C102.202 76.1352 101.236 77.2144 100.412 78.4016C99.3448 79.9101 99.8921 81.2915 101.796 82.2045C103.289 82.9185 104.338 84.4544 103.952 85.8496C103.705 86.7529 103.036 87.5737 102.421 88.3231C101.735 89.1528 100.825 89.8024 100.112 90.623C99.1273 91.7558 99.3278 92.661 100.578 93.5173C102.087 94.5359 102.173 95.0736 101.606 96.8708C101.121 98.382 100.048 99.3353 98.939 100.351C97.2074 101.964 95.9401 103.884 96.3544 106.446C96.5353 107.629 97.3035 108.098 98.4628 107.683C99.0918 107.462 99.666 107.401 100.12 107.914C100.61 108.453 100.883 109.144 100.512 109.841C100.085 110.654 99.5691 111.422 99.0264 112.18C97.6966 114.064 97.1723 116.174 97.849 118.362C98.4906 120.434 99.3926 122.444 100.295 124.409C100.781 125.485 101.538 126.429 102.177 127.453C102.541 128.054 102.954 127.895 103.458 127.646L104.21 127.856Z" fill="currentColor"/>
</g></svg>
