<svg width="379" height="283" viewBox="0 0 379 283" fill="none" xmlns="http://www.w3.org/2000/svg" style="color: #2A5473"><g id="illustration">
<path d="M141.693 179.999C143.641 172.653 155.25 172.184 159.294 159.932C161.152 154.304 165.499 141.814 176.173 134.909C185.132 129.114 186.046 127.742 191.825 114.258C193.704 109.873 198.909 102.983 204.044 97.9711C212.626 89.5949 206.793 91.9023 215.003 83.563C225.265 73.1389 213.295 76.0258 235.049 57.8789C235.049 40.3386 244.446 39.7122 256.348 37.2065C268.25 34.7008 278.048 38.0881 293.267 45.3351C306.422 51.5996 319.105 59.898 330.864 71.6564C337.755 78.5472 345.898 87.9437 356.547 104.857C363.457 115.831 364.721 119.898 364.722 132.425C363.471 140.319 358.405 148.868 345.1 153.086C337.161 155.604 322.517 154.308 311.899 158.724C304.337 161.869 302.166 171.262 297.494 172.507C281.441 176.784 279.964 165.229 276.195 169.374C269.931 176.265 268.701 175.01 262.437 173.757C257.019 172.674 260.383 184.252 253.041 186.286C247.076 187.938 244.927 184.462 238.006 186.286C232.968 187.614 228.977 201.822 223.598 203.2C217.074 204.871 206.592 193.367 199.793 195.056C193.4 196.644 190.556 207.913 184.132 209.464C177.404 211.089 167.483 203.552 160.954 205.079C154.633 206.558 155.594 220.66 149.678 221.993C145.014 223.044 144.915 218.185 140.908 216.355C134.017 213.207 130.927 216.347 130.289 213.215C128.914 206.463 134.821 200.951 135.266 199.457C137.132 193.198 139.025 190.06 141.693 179.999Z" fill="currentColor"/>
<path d="M22.6858 130.162C15.5066 126.363 11.9252 121.266 9.51481 114.584C5.24622 102.752 5.40963 95.1546 8.98129 85.7342C6.94172 80.0807 5.25203 80.827 6.34319 76.8116C7.43434 72.7961 12.6051 74.7888 9.95713 69.1185C6.93932 62.6562 8.90318 61.3669 15.9132 58.2571C17.3867 47.8511 26.511 39.3318 32.2231 32.6243C38.8125 24.8866 51.685 15.7288 73.8274 9.48319C83.8106 6.66731 96.0051 5.0559 110.431 7.89294C112.63 5.93795 112.964 5.23679 114.496 4.68496C118.646 3.19068 121.037 10.8319 123.242 9.66029C126.668 7.8402 129.651 5.63055 136.448 14.1859C139.678 18.2517 143.644 14.3881 145.85 16.0234C147.43 17.1953 145.411 19.6588 148.625 23.7269C150.322 25.8754 148.48 19.4108 154.786 21.5066C159.909 23.2093 156.497 27.8604 159.225 27.4764C164.125 26.7866 164.014 28.6532 163.659 31.6897C163.235 35.3235 163.794 36.8689 168.791 36.2281C171.689 35.8563 171.842 42.943 169.767 46.8528C175.43 48.9463 180.009 62.3002 182.627 69.5574C182.198 73.1973 181.121 73.7688 178.785 75.0092C175.373 76.8211 172.235 77.935 170.21 78.6741C164.003 80.9406 144.816 87.2639 135.051 90.7868C129.398 92.8264 92.3928 106.176 72.8624 113.222C58.4625 118.417 29.738 128.78 22.6858 130.162Z" fill="currentColor"/>
<path d="M23.2778 170.23C24.0324 174.004 23.6595 179.287 19.5522 179.287C15.1041 179.287 15.3493 174.758 16.107 170.23C16.9279 165.324 17.9702 157.382 19.5547 145.138C21.7439 157.76 22.2967 165.324 23.2778 170.23Z" fill="currentColor"/>
<path d="M11.7807 198.01C12.4988 201.601 12.1439 206.629 8.23525 206.629C4.00225 206.629 4.2356 202.319 4.95665 198.01C5.73786 193.341 6.72976 185.784 8.2376 174.131C10.321 186.143 10.847 193.341 11.7807 198.01Z" fill="currentColory"/>
</g></svg>
