<svg width="424" height="352" viewBox="0 0 424 352" fill="none" xmlns="http://www.w3.org/2000/svg">
<path d="M121.006 119.246C121.833 123.799 125.269 121.987 123.457 128.047C122.122 132.514 128.775 132.405 121.95 136.84C114.516 135.857 100.147 133.034 94.1181 134.089C84.3892 158.807 67.5574 168.893 39.1565 155.101C36.3717 161.737 23.3475 173.227 20.5059 175.621C15.4391 171.101 17.925 172.186 17.7653 168.452C17.65 165.756 10.2389 165.481 12.4051 160.763C14.4255 156.363 6.65247 155.967 7.48719 153.514C9.63077 147.214 2.73796 147.417 4.69077 140.584C17.9738 141.896 21.933 141.904 34.589 143.153C41.3616 104.35 71.8429 106.087 88.8694 120.36C96.8591 114.174 106.224 103.481 113.292 99.0671C123.302 103.761 112.682 107.821 117.961 111.281C123.239 114.74 120.278 115.242 121.006 119.246Z" fill="#2A5473"/>
<path d="M101.546 240.203C101.244 240.557 100.928 240.873 100.626 241.227C99.1765 243.061 100.34 245.035 100.305 246.945C100.268 248.223 100.371 249.538 100.335 250.816C100.286 252.056 100.855 253.005 102.042 253.537C102.295 253.663 102.548 253.917 102.624 254.144C103.232 256.219 104.937 257.169 106.643 258.118C109.144 259.562 111.859 260.259 114.662 260.842C117.907 261.488 121.089 262.451 124.359 263.047C127.856 263.694 131.366 264.378 134.939 264.62C137.565 264.798 140.241 264.496 142.841 264.092C145.491 263.714 148.166 263.158 150.703 262.312C156.494 260.378 162.248 258.205 167.989 256.12C170.008 255.362 172.064 254.591 174.02 253.643C176.341 252.53 178.574 251.279 180.857 250.053C182.787 249.029 184.717 248.131 186.622 247.032C188.64 245.894 190.57 244.617 192.525 243.416C194.821 241.975 197.104 240.496 199.387 239.016C201.556 237.575 203.713 236.096 205.882 234.654C207.358 233.656 208.91 232.758 210.31 231.658C212.857 229.711 215.278 227.637 217.762 225.627C220.448 223.465 223.198 221.366 225.808 219.102C227.775 217.433 229.666 215.663 231.394 213.779C233.915 211.123 236.335 208.417 238.68 205.609C240.545 203.383 242.12 200.917 243.986 198.691C247.137 194.897 249.858 190.825 252.289 186.512C254.645 182.351 257.152 178.266 259.419 174.092C261.031 171.107 262.592 168.097 263.889 164.922C265.286 161.418 266.531 157.838 267.549 154.208C268.982 149.047 270.364 143.861 271.342 138.599C272.37 133.108 272.894 127.492 273.556 121.913C273.918 118.839 274.104 115.74 274.213 112.665C274.287 110.743 274.057 108.794 273.916 106.859C273.787 104.708 273.608 102.532 273.391 100.369C273.237 98.9009 272.958 97.4333 272.716 95.9531C272.449 94.2704 272.119 92.651 271.814 90.9809C271.776 90.8671 271.75 90.6646 271.687 90.4748C270.28 85.7555 268.987 80.9982 267.39 76.342C266.618 74.1531 265.239 72.1664 264.139 70.1291C263.379 68.7372 262.57 67.32 261.735 65.9533C259.56 62.4608 256.905 59.4235 253.721 56.8161C251.105 54.6517 248.691 52.2091 245.912 50.3103C243.461 48.6394 240.707 47.3225 237.916 46.2713C232.486 44.2449 226.766 43.2431 220.972 42.8991C217.058 42.6445 214.152 40.6191 211.549 38.1132C208.667 35.2782 205.861 32.2914 203.27 29.1909C202.221 27.938 201.726 26.2046 201.245 24.6357C200.852 23.3325 200.005 22.434 199.019 21.6239C197.389 20.2696 195.696 18.9785 193.965 17.7C193.131 17.0924 192.247 16.333 191.162 16.9904C190.607 17.3444 190.191 17.9894 189.788 18.5459C187.872 21.1259 185.868 23.6932 184.597 26.6909C183.955 28.1708 183.465 29.7266 182.962 31.2445C182.685 32.054 182.433 32.813 182.245 33.6352C181.944 34.8749 182.399 35.8618 183.183 36.8236C183.651 37.3425 184.03 37.9752 184.321 38.5952C184.967 40.025 186.117 40.949 187.342 41.8477C189.086 43.1642 190.691 44.6956 192.245 46.2017C194.596 48.4545 197.06 50.6694 199.121 53.1878C200.398 54.7444 202.205 56.1241 202.422 58.414C202.537 59.6412 202.488 60.8809 202.603 62.1081C202.77 63.9932 202.987 65.9035 203.229 67.7633C203.598 70.5087 203.968 73.2541 204.337 75.9995C204.503 77.252 204.631 78.5171 204.885 79.7823C205.202 81.3638 205.557 82.9327 205.913 84.5015C206.599 87.8163 207.309 91.0805 207.882 94.4332C208.301 96.8244 208.632 99.2029 208.724 101.619C208.866 104.82 208.807 108.046 208.647 111.221C208.475 114.991 208.088 118.748 207.739 122.493C207.353 126.629 206.298 130.652 204.914 134.573C203.744 138.001 202.625 141.454 201.304 144.806C200.41 147.045 198.974 149.043 198.131 151.307C196.444 155.709 193.609 159.44 190.912 163.209C188.304 166.864 185.266 170.24 182.189 173.503C179.857 175.969 177.184 178.169 174.536 180.319C172.682 181.823 170.613 183.062 168.684 184.466C166.325 186.223 164.03 188.044 161.672 189.801C159.275 191.572 156.854 193.266 154.382 194.935C152.288 196.351 150.182 197.729 148.037 199.119C146.549 200.08 144.997 200.978 143.471 201.951C141.642 203.152 139.763 204.328 138.06 205.656C135.349 207.742 132.701 209.892 130.116 212.104C127.291 214.482 124.504 216.846 121.869 219.413C118.843 222.322 116.083 225.521 113.095 228.417C110.649 230.794 107.899 232.893 105.466 235.308C104.016 236.763 102.857 238.584 101.546 240.203Z" fill="#2A5473"/>
<path d="M359.661 240.877C354.782 242.08 353.228 251.521 350.086 280.761C348.857 292.198 350.519 334.997 330.419 332.189C318.981 330.592 321.998 298.037 317.437 295.28C314.396 293.442 301.674 323.119 288.122 318.042C272.345 312.132 286.328 295.169 298.619 266.268C305.178 250.847 313.24 238.752 307.691 237.5C302.211 236.263 295.968 234.571 288.209 231.952C282.289 229.953 275.865 227.02 276.361 220.644C276.937 213.243 286.051 214.046 294.059 213.691C310.057 212.981 320.842 222.614 318.483 207.686C310.081 154.532 381.396 174.005 356.599 215.032C351.031 224.245 369.443 215.844 385.467 222.224C400.498 228.208 392.418 239.917 379.777 238.506C372.533 237.697 368.829 238.617 359.661 240.877Z" fill="#2A5473"/>
</svg>
