<svg  viewBox="-100 0 417 410" fill="none" xmlns="http://www.w3.org/2000/svg" style="color: #2A5473"><g id="illustration">
<path d="M9.79008 364.309C9.79008 342.208 9.62247 321.08 9.71147 300.819C9.73964 294.404 9.79016 287.708 9.79008 282.923C9.79003 280.384 9.79008 279.303 9.79008 276.187C9.79008 272.55 9.71146 249.611 9.71146 246.254C9.71147 242.897 9.71142 204.291 9.71147 198.137C9.71151 191.982 9.79007 153.936 9.79007 144.984C9.79008 137.99 20.4625 127.17 23.0311 123.723C27.4091 117.848 39.8135 109.176 39.8135 104.979C39.8135 75.8854 39.8135 38.1192 39.8135 7.06687C44.008 3.43015 47.5543 1.22102 55.1934 1.19213C63.4193 1.16101 67.2176 2.87062 72.5306 7.06689C72.5306 19.3759 72.5306 69.7309 72.5306 104.979C72.5306 109.936 85.7642 118.241 90.7025 123.723C93.9789 127.36 102.731 137.99 102.73 144.984C102.729 153.377 102.738 196.724 102.73 198.137C102.717 200.375 102.73 242.617 102.73 246.254C102.73 249.891 102.73 271.991 102.73 276.187C102.73 280.384 102.73 280.126 102.73 282.923C102.73 285.721 102.73 297.462 102.73 300.819C102.73 304.176 102.73 361.511 102.73 364.309C98.594 371.859 93.6823 374.614 88.7472 377.457C82.4314 381.096 77.5622 382.54 64.9779 383.052C55.9509 383.42 49.0541 384.017 39.5317 381.933C36.6212 381.296 27.6887 380.349 19.7758 375.905C17.3963 374.569 11.6779 370.424 9.79008 364.309Z" fill="currentColor"/>
<path d="M163.476 380.405C166.426 379.615 167.21 379.901 167.816 378.184C168.647 375.829 168.847 373.447 168.924 371.722C169.227 364.957 168.924 325.479 168.924 323.863C168.924 322.248 167.511 320.431 167.411 320.027C167.117 318.851 165.897 318.512 163.98 316.998C162.063 315.483 149.245 308.415 141.978 298.757C131.669 285.056 131.078 277.519 131.078 266.716C131.078 260.153 131.078 250.359 132.49 239.959C133.904 229.554 137.739 205.428 140.362 194.119C141.876 192.807 167.984 191.101 170.741 191.09C173.71 191.079 200.111 192.605 202.028 194.119C204.249 200.278 209.384 227.342 211.011 239.959C212.625 252.479 212.827 256.821 212.827 266.716C212.827 275.399 213.658 284.782 201.221 298.757C196.579 303.973 196.983 305.216 179.825 316.998C178.44 317.949 177.819 318.782 177.402 320.027C177.199 320.633 176.393 322.349 176.393 323.863C176.393 325.378 176.393 369.501 176.393 371.722C176.393 373.881 177.101 376.367 177.706 378.184C178.177 379.598 181.138 379.468 185.074 380.405C191.965 382.047 208.99 387.1 208.553 392.751C208.117 398.401 196.491 403.884 187.204 406.451C179.533 408.571 167.816 408.273 157.821 406.451C143.734 403.883 137.465 397.467 136.345 392.751C135.225 388.034 157.824 381.92 163.476 380.405Z" fill="currentColor"/>
</g></svg>
