<svg width="274" height="314" viewBox="0 0 274 314" fill="none" xmlns="http://www.w3.org/2000/svg" style="color: #2A5473"><g id="illustration">
<path d="M41.2172 273.149C46.3836 269.862 47.9101 269.546 51.9635 270.221C58.1358 270.796 58.684 270.711 62.9003 268.975C67.5723 267.59 67.9771 267.402 71.2759 265.18C74.4128 260.277 72.8546 260.313 73.676 251.271C73.5721 246.596 74.9021 240.969 75.9547 238.796C78.6898 235.36 79.0627 234.891 82.671 231.64C88.8433 232.215 90.9074 235.388 94.1886 239.276C96.2566 242.94 99.4527 251.886 100.308 258.18C99.6775 268.904 99.2728 269.092 96.2094 277.747C92.1081 284.822 93.2509 284.677 87.2596 290.914C81.303 297.749 79.6096 298.603 70.4506 300.499C57.4235 300.847 61.8815 301.333 52.9019 299.799C40.1091 293.444 42.9453 293.405 40.1592 289.657C37.0334 283.852 37.5857 279.954 41.2172 273.149Z" fill="currentColor"/>
<path d="M48.1222 251.075C43.4594 250.878 42.3675 250.41 40.128 248.22C36.5207 245.168 36.1412 244.982 32.7484 244.229C29.2244 243.057 28.8894 242.998 25.8583 242.95C21.7597 244.648 22.7492 245.306 18.293 250.603C16.3192 253.573 13.0344 256.513 11.4289 257.413C8.22082 258.369 7.78335 258.5 4.11004 258.96C0.502678 255.908 0.596413 253.023 0.240529 249.16C0.545536 245.966 2.44876 238.976 4.65864 234.666C9.72939 228.232 10.0644 228.291 15.7533 224.213C21.402 221.576 20.6244 221.169 27.0891 219.88C33.7926 218.203 35.2238 218.407 41.7754 221.216C50.0699 226.681 47.4954 224.432 52.4395 229.308C57.6648 238.863 55.875 237.65 55.982 241.21C55.4046 246.205 53.3596 248.402 48.1222 251.075Z" fill="currentColor"/>
<path d="M17.9615 284.528C19.4691 287.597 19.8717 287.689 22.1992 287.547C24.1791 286.642 24.8534 286.287 24.6617 282.899C24.4466 282.014 22.6279 274.878 18.0032 271.377C16.0783 275.513 17.79 283.823 17.9615 284.528Z" fill="currentColor"/>
<path d="M62.9933 222.496C66.3433 223.179 66.6624 222.916 67.9728 220.988C68.4666 218.867 68.5986 218.117 65.7997 216.197C64.9682 215.826 58.2093 212.903 52.611 214.422C54.7074 218.474 62.3305 222.2 62.9933 222.496Z" fill="currentColor"/>
<path d="M20.9484 259.522C17.5316 259.401 17.2602 259.712 16.2862 261.831C16.1491 264.004 16.1428 264.765 19.2202 266.197C20.1015 266.425 27.2502 268.193 32.521 265.771C29.7845 262.12 21.6509 259.704 20.9484 259.522Z" fill="currentColor"/>
<path d="M200.725 19.0625C200.725 19.0625 202.225 20.6388 200.721 37.1856C220.974 62.0056 223.599 65.9453 223.599 71.0669C224.367 87.2039 228.473 192.41 226.598 219.2C205.975 234.958 195.101 244.808 195.101 244.808C195.101 244.808 186.102 244.808 162.854 236.928C134.356 231.413 119.401 223.546 119.401 223.546C117.526 190.846 116.498 205.557 116.026 162.086C116.026 162.086 112.651 98.6572 116.78 71.0663C132.529 47.4407 120.905 65.9573 146.773 31.6822C146.773 12.7586 149.095 12.7586 149.095 12.7586L200.725 19.0625Z" fill="currentColor"/>
</g></svg>
