<svg width="372" height="324" viewBox="0 0 372 324" fill="none" xmlns="http://www.w3.org/2000/svg" style="color: #2A5473"><g id="illustration">
<path d="M142.871 118.799C142.871 118.799 142.871 114.08 142.871 107.592C171.686 99.9239 238.139 78.6895 264.602 71.6112C292.241 76.9199 330.465 80.4591 353.985 85.7689C355.165 110.542 350.444 172.466 350.444 172.466C350.444 172.466 238.713 213.166 208.721 224.963C204.605 223.784 202.841 223.784 197.548 222.014C192.844 226.143 189.381 228.748 188.139 229.682C178.73 227.913 171.673 227.323 162.264 223.784C162.264 226.143 162.264 227.913 162.264 229.682C121.017 242.3 91.3592 252.03 82.288 254.456C46.4162 247.378 32.8907 242.659 6.4279 234.401C5.83984 226.733 5.83984 223.784 5.2375 213.165C5.2375 213.165 59.3312 198.416 91.0866 187.209C77.5611 176.002 68.7402 167.744 52.2775 151.818C55.8029 148.278 58.1551 145.919 61.6832 142.971C76.3923 144.152 88.1448 144.152 99.906 144.152C98.7299 139.433 98.1419 137.663 96.9675 130.585C108.144 122.328 118.172 117.03 118.172 117.03L142.871 118.799Z" fill="currentColor"/>
<path d="M342.716 196.328C340.604 195.921 314.236 208.63 303.239 213.898C292.243 219.165 279.226 225.799 271.97 229.603C259.888 235.939 256.454 237.702 246.124 241.967C227.144 249.802 215.427 253.563 195.892 261.358C182.593 266.665 171.7 271.887 162.191 276.132C157.245 278.339 166.678 286.591 169.201 289.262C171.724 291.932 178.78 298.1 191.486 297.529C204.192 296.958 212.992 290.451 222.174 282.63C228.417 277.313 234.661 271.969 244.146 263.39C251.562 258.738 260.992 254.887 270.244 249.748C280.8 243.884 286.833 240.35 291.665 237.801C296.497 235.252 313.586 227.587 319.025 224.383C327.36 219.474 348.046 211.331 348.551 208.793C349.057 206.256 344.827 196.735 342.716 196.328Z" fill="currentColoryyy"/>
</g></svg>
