<svg width="441" height="278" viewBox="0 0 441 278" fill="none" xmlns="http://www.w3.org/2000/svg">
<path d="M195.345 32.7906C206.072 31.4199 219.006 31.0675 228.924 31.1089C236.604 31.14 243.082 31.0179 253.195 31.6137C267.956 32.4834 273.01 32.7079 283.927 34.3695C294.845 36.0311 299.089 37.2623 301.904 40.9151C301.862 51.2305 301.605 52.8893 304.49 52.2529C309.077 51.1455 315.968 49.1185 321.09 48.0736C334.645 47.1179 339.476 45.7207 348.76 50.6134C355.212 54.4835 356.408 55.9021 360.836 61.3817C365.26 68.4802 366.059 72.5283 366.012 84.0594C363.725 97.3982 362.708 99.2146 358.021 106.275C353.748 112.528 348.651 116.327 343.206 119.565C336.791 123.38 329.607 129.767 322.708 134.65C315.11 140.027 304.049 148.146 297.962 152.752C297.573 148.908 299.085 124.439 299.279 126.26C300.691 127.277 301.409 127.454 305.347 126.487C310.206 125.294 313.453 122.694 320.15 117.446C326.486 112.48 330.695 111.017 340.637 103.574C343.671 101.021 342.671 101.964 346.127 97.7304C349.182 92.6861 351.013 90.0641 352.458 83.1928C352.484 76.7202 353.091 76.7227 348.476 67.8036C346.461 65.7726 345.858 64.9611 341.016 61.9069C338.398 61.3625 330.505 60.2454 323.014 61.8327C313.49 65.8389 311.813 69.0336 308.602 74.112C297.362 91.8863 299.243 126.154 299.279 126.26C299.451 134.958 297.985 148.303 297.962 152.752C296.93 158.816 297.114 162.053 296.493 165.49C273.322 192.701 184.748 180.894 171.694 164.774C168.535 145.949 166.575 51.2773 166.616 41.4324C170.252 35.7211 185.459 34.0539 195.345 32.7906Z" fill="#2A5473"/>
<path d="M264.067 78.2865C261.371 80.7171 259.651 83.6363 258.64 85.4289C258.64 85.4289 254.465 84.3929 249.509 76.873L264.067 78.2865Z" fill="#2A5473"/>
<path d="M237.37 50.5181C235.833 47.8026 233.895 43.7427 233.377 39.6683C233.377 39.6683 226.149 39.893 221.707 43.4018C221.671 43.4318 221.635 43.4617 221.583 43.5005L237.37 50.5181Z" fill="#2A5473"/>
<path d="M103.073 164.911C103.073 164.911 67.3588 171.528 55.3686 170.787C29.9106 166.804 21.7047 169.507 15.8921 173.16C4.72563 187.746 7.87773 183.985 5.82737 193.403C3.58665 203.696 9.29002 215.282 9.29002 215.282C9.29002 215.282 12.0923 221.874 24.5856 227.46C32.5297 228.754 38.2239 227.501 38.9738 228.349C39.7238 229.198 36.4368 243.438 43.9858 251.126C43.9858 251.126 48.4856 256.219 61.9264 259.455C72.7919 262.072 79.512 260.542 90.9498 257.237C98.539 251.286 102.486 252.333 109.168 235.093C125.501 230.485 153.123 224.97 160.869 216.622C161.068 213.424 161.906 199.841 161.906 199.841C161.906 199.841 147.674 189.818 136.674 183.318C125.674 176.818 103.073 164.911 103.073 164.911Z" fill="#2A5473"/>
<path d="M276.394 228.597C276.073 228.651 275.762 228.68 275.441 228.734C273.841 229.069 273.581 230.65 272.706 231.66C272.114 232.329 271.58 233.081 270.988 233.751C270.406 234.394 270.286 235.159 270.685 235.976C270.764 236.157 270.786 236.406 270.725 236.563C270.122 237.949 270.611 239.223 271.101 240.496C271.797 242.392 272.942 243.982 274.185 245.551C275.637 247.352 276.913 249.295 278.402 251.08C279.989 252.994 281.566 254.935 283.375 256.665C284.705 257.938 286.276 258.974 287.853 259.923C289.445 260.907 291.13 261.808 292.87 262.49C296.845 264.047 300.907 265.459 304.923 266.912C306.346 267.41 307.795 267.918 309.269 268.285C311.014 268.728 312.773 269.057 314.548 269.422C316.043 269.737 317.481 270.121 318.996 270.384C320.589 270.677 322.197 270.857 323.784 271.088C325.662 271.343 327.551 271.572 329.439 271.802C331.249 272 333.069 272.172 334.879 272.371C336.119 272.496 337.354 272.71 338.598 272.746C340.838 272.843 343.067 272.815 345.301 272.849C347.711 272.892 350.128 272.997 352.543 272.952C354.346 272.938 356.155 272.835 357.926 272.598C360.469 272.302 362.981 271.934 365.497 271.478C367.496 271.119 369.446 270.501 371.445 270.142C374.836 269.518 378.122 268.552 381.359 267.326C384.488 266.148 387.664 265.079 390.751 263.855C392.954 262.975 395.141 262.059 397.259 260.936C399.579 259.681 401.851 258.318 404.024 256.825C407.106 254.697 410.172 252.533 413.055 250.147C416.067 247.661 418.864 244.881 421.72 242.183C423.291 240.696 424.78 239.116 426.216 237.515C427.117 236.516 427.867 235.367 428.659 234.265C429.553 233.053 430.432 231.804 431.285 230.546C431.86 229.69 432.368 228.777 432.901 227.874C433.512 226.851 434.06 225.834 434.645 224.801C434.675 224.723 434.752 224.603 434.803 224.472C436.163 221.309 437.6 218.176 438.83 214.962C439.396 213.441 439.547 211.757 439.869 210.17C440.085 209.083 440.286 207.959 440.45 206.852C440.847 204.002 440.783 201.183 440.243 198.357C439.809 196.023 439.607 193.63 438.967 191.366C438.4 189.37 437.512 187.43 436.485 185.615C434.478 182.094 431.857 178.994 428.902 176.213C426.915 174.322 426.263 171.933 425.989 169.422C425.712 166.609 425.545 163.748 425.543 160.923C425.541 159.78 426.053 158.628 426.497 157.571C426.87 156.695 426.818 155.833 426.652 154.957C426.384 153.5 426.054 152.048 425.698 150.586C425.523 149.886 425.388 149.083 424.511 148.949C424.055 148.891 423.543 149.05 423.077 149.168C420.893 149.695 418.667 150.175 416.641 151.214C415.633 151.721 414.673 152.336 413.723 152.925C413.212 153.236 412.737 153.531 412.267 153.887C411.55 154.418 411.352 155.152 411.342 156.019C411.36 156.507 411.281 157.017 411.159 157.48C410.865 158.537 411.068 159.548 411.323 160.579C411.669 162.067 411.844 163.608 412.004 165.113C412.256 167.376 412.586 169.669 412.563 171.944C412.551 173.351 412.903 174.901 411.993 176.228C411.505 176.938 410.924 177.582 410.435 178.292C409.68 179.378 408.941 180.501 408.237 181.607C407.205 183.246 406.173 184.885 405.141 186.525C404.669 187.271 404.171 188.007 403.74 188.8C403.202 189.791 402.69 190.793 402.178 191.794C401.06 193.88 399.979 195.951 398.784 198.007C397.938 199.478 397.05 200.903 396.016 202.241C394.658 204.023 393.181 205.728 391.672 207.36C389.891 209.306 388 211.15 386.134 213.003C384.074 215.05 381.705 216.736 379.205 218.221C377.041 219.537 374.893 220.889 372.682 222.096C371.199 222.897 369.533 223.326 368.066 224.163C365.188 225.77 361.995 226.502 358.858 227.316C355.821 228.109 352.677 228.56 349.564 228.933C347.207 229.211 344.787 229.194 342.402 229.161C340.733 229.138 339.067 228.876 337.403 228.765C335.35 228.652 333.302 228.6 331.249 228.487C329.169 228.363 327.11 228.187 325.036 227.975C323.278 227.797 321.529 227.593 319.755 227.379C318.526 227.228 317.291 227.014 316.036 226.853C314.516 226.678 312.98 226.467 311.472 226.416C309.082 226.321 306.697 226.288 304.318 226.318C301.737 226.328 299.182 226.348 296.617 226.545C293.69 226.75 290.774 227.231 287.873 227.446C285.495 227.626 283.079 227.521 280.69 227.727C279.261 227.857 277.822 228.316 276.394 228.597Z" fill="#2A5473"/>
</svg>
