<svg width="304" height="333" viewBox="0 0 304 333" fill="none" xmlns="http://www.w3.org/2000/svg">
<path d="M144.175 0C142.144 1.35402 140.35 2.57264 138.523 3.79126C137.711 4.33287 137.846 4.97603 138.286 5.68689C140.757 9.4443 143.126 13.3033 145.765 16.9591C149.556 22.2737 153.515 27.4866 157.509 32.6658C158.761 34.2906 160.317 35.7462 161.84 37.1679C164.311 39.5036 165.36 42.1439 164.379 45.529C163.6 48.237 163.093 51.0128 162.382 53.7547C160.588 60.4232 161.4 66.9564 164.074 73.1172C168.88 84.2202 173.516 95.4585 179.844 105.851C181.604 108.728 183.364 111.639 184.921 114.618C186.41 117.495 186.038 120.474 184.413 123.182C180.487 129.749 176.426 136.248 172.467 142.815C171.688 144.102 170.978 145.523 170.605 146.945C168.846 153.817 168.609 160.722 170.605 167.662C172.771 175.177 175.648 182.353 180.183 188.818C186.444 197.721 192.705 206.59 201.199 213.631C207.155 218.573 213.924 221.755 221.403 223.38C226.716 224.531 232.131 225.512 237.546 225.952C245.702 226.596 253.147 223.786 259.983 219.622C266.21 215.831 272.539 212.04 277.615 206.658C280.221 203.882 282.488 200.734 284.891 197.789C288.952 192.813 293.013 187.837 297.04 182.827C300.729 178.257 302.354 172.875 302.76 167.188C303.301 160.147 303.809 153.14 303.978 146.065C304.147 139.092 303.369 132.119 300.425 125.721C298.428 121.422 295.585 117.461 292.979 113.467C287.226 104.564 278.732 99.1821 269.29 95.12C265.195 93.3598 260.931 92.0396 256.802 90.381C249.086 87.3006 242.791 82.2568 237.579 75.8929C231.995 69.0551 226.581 62.048 221.031 55.1764C217.68 51.0128 214.431 46.7138 210.607 42.9902C205.632 38.0819 200.048 33.8167 192.772 33.0381C189.219 32.6658 185.598 32.9366 182.01 33.072C179.777 33.1735 177.543 33.6813 175.31 33.8505C169.726 34.3245 165.089 32.1242 160.96 28.6037C156.223 24.5755 153.447 19.0917 149.826 14.2511C146.814 10.2567 145.968 5.58534 144.513 1.04937C144.412 0.744712 144.31 0.507758 144.175 0Z" fill="#2A5473"/>
<path d="M209.196 296.465C209.596 296.705 209.995 296.905 210.394 297.145C212.349 298.426 211.87 300.667 212.509 302.467C212.948 303.668 213.267 304.948 213.706 306.149C214.145 307.309 213.905 308.39 212.948 309.27C212.748 309.47 212.589 309.79 212.589 310.031C212.668 312.191 211.351 313.632 210.034 315.073C208.119 317.233 205.764 318.754 203.29 320.195C200.417 321.835 197.703 323.756 194.79 325.357C191.677 327.078 188.565 328.838 185.252 330.199C182.818 331.199 180.184 331.759 177.59 332.2C174.956 332.68 172.243 333 169.569 333C163.463 333 157.317 332.76 151.212 332.6C149.057 332.52 146.862 332.44 144.707 332.16C142.153 331.84 139.639 331.359 137.084 330.919C134.929 330.559 132.814 330.319 130.659 329.879C128.385 329.439 126.15 328.838 123.915 328.318C121.281 327.678 118.647 326.998 116.014 326.317C113.499 325.637 110.985 324.917 108.471 324.236C106.755 323.756 104.999 323.396 103.323 322.796C100.29 321.755 97.3371 320.555 94.344 319.434C91.1116 318.234 87.8392 317.113 84.6466 315.793C82.2522 314.832 79.8977 313.752 77.6629 312.512C74.4304 310.791 71.2778 308.99 68.165 307.069C65.6908 305.549 63.4161 303.708 60.9419 302.187C56.7516 299.586 52.8807 296.585 49.2092 293.264C45.6575 290.062 41.986 286.981 38.5141 283.74C36.0399 281.419 33.6056 279.058 31.3708 276.457C28.9364 273.575 26.6218 270.574 24.5068 267.453C21.5137 263.011 18.5606 258.529 15.9667 253.847C13.253 248.965 10.9783 243.803 8.58386 238.721C7.26693 235.92 6.10963 233.039 5.03214 230.158C4.35372 228.357 3.95465 226.436 3.47577 224.555C2.91707 222.474 2.39828 220.354 1.91939 218.233C1.60014 216.792 1.4006 215.311 1.16116 213.831C0.88181 212.15 0.682275 210.51 0.442833 208.829C0.442833 208.709 0.402926 208.509 0.402926 208.309C0.243298 203.387 -0.036051 198.465 0.00385602 193.543C0.043763 191.222 0.722182 188.901 1.12125 186.62C1.4006 185.059 1.71986 183.458 2.07902 181.898C3.03679 177.896 4.59316 174.175 6.78805 170.693C8.58386 167.812 10.1003 164.731 12.1356 162.05C13.9314 159.689 16.1263 157.568 18.4409 155.687C22.9504 152.045 28.0585 149.284 33.4459 147.123C37.0775 145.643 39.1925 142.802 40.8686 139.6C42.7044 135.999 44.4204 132.277 45.8969 128.516C46.4955 126.995 46.4157 125.194 46.3758 123.554C46.3359 122.193 46.8547 121.073 47.5331 119.992C48.6505 118.191 49.8477 116.431 51.0848 114.67C51.6834 113.83 52.282 112.829 53.5192 113.109C54.1577 113.269 54.7563 113.75 55.315 114.15C57.9488 115.991 60.6625 117.791 62.8175 120.232C63.895 121.433 64.8528 122.753 65.8105 124.034C66.3293 124.714 66.8082 125.354 67.2472 126.075C67.9256 127.155 67.8059 128.236 67.3669 129.396C67.0876 130.036 66.9279 130.757 66.8481 131.437C66.6885 132.998 65.8903 134.238 65.0124 135.479C63.7753 137.279 62.7377 139.24 61.74 141.161C60.2235 144.042 58.5874 146.923 57.4301 149.965C56.7117 151.845 55.4347 153.726 55.9535 155.967C56.2328 157.168 56.6718 158.328 56.9512 159.528C57.3901 161.369 57.7892 163.25 58.1484 165.091C58.6672 167.812 59.186 170.533 59.7048 173.254C59.9442 174.495 60.2235 175.735 60.3832 177.016C60.5827 178.616 60.7423 180.217 60.902 181.818C61.301 185.179 61.6602 188.5 62.179 191.862C62.5382 194.263 62.9771 196.624 63.6555 198.945C64.5335 202.026 65.611 205.067 66.7683 208.028C68.1251 211.55 69.6815 214.991 71.198 218.433C72.8741 222.234 75.1488 225.716 77.7028 228.997C79.8977 231.878 82.0527 234.8 84.3673 237.561C85.9237 239.401 87.919 240.842 89.4355 242.723C92.4285 246.364 96.2995 249.005 100.051 251.726C103.682 254.368 107.633 256.608 111.584 258.729C114.577 260.33 117.809 261.571 121.002 262.771C123.237 263.611 125.591 264.132 127.866 264.852C130.659 265.772 133.413 266.773 136.207 267.693C139.04 268.613 141.873 269.454 144.747 270.254C147.181 270.934 149.615 271.575 152.09 272.215C153.806 272.655 155.561 273.015 157.317 273.455C159.432 274.016 161.587 274.536 163.623 275.256C166.855 276.377 170.048 277.577 173.2 278.858C176.632 280.218 180.024 281.579 183.337 283.179C187.128 284.98 190.759 287.141 194.511 288.942C197.584 290.422 200.856 291.543 203.929 293.064C205.764 293.984 207.441 295.344 209.196 296.465Z" fill="#2A5473"/>
</svg>
