<svg width="376" height="298" viewBox="0 0 376 298" fill="none" xmlns="http://www.w3.org/2000/svg">
<path d="M187.433 28.2178C187.433 28.2178 195.02 28.2176 234.004 44.0808C285.782 61.266 297.357 64.5708 325.988 96.9575C350.355 128.683 354.619 114.803 358.274 159.087C340.608 199.405 330.252 205.354 330.252 205.354C330.252 205.354 313.804 215.268 267.507 231.131C226.083 231.131 218.164 225.844 218.164 225.844C203.543 205.354 198.67 205.354 203.544 172.967C203.544 172.967 218.164 149.173 196.233 99.6014C181.613 73.8242 177.349 66.5537 96.3315 31.5226C96.3315 -1.17465 105.129 6.63985 105.129 6.63985L187.433 28.2178Z" fill="#2A5473"/>
<path d="M59.6218 202.072C59.6218 202.072 18.1118 180.493 27.6567 138.984C35.3582 122.686 31.5 117.11 64.0925 103.091C92.7728 101.501 97.452 107.439 110.354 117.11C128.817 135.5 125.12 166.5 125.12 166.5C125.12 166.5 121 194 123 204C135 217.5 128.817 220.847 128.817 220.847C141.758 259.127 147.368 248.297 155.077 260.095C155.077 260.095 162.549 280.91 138.224 278.563C131.483 287.556 120.209 297.549 112.698 284.511C108.364 276.988 119.607 267.39 102.5 234C94 236.5 90 219 90 219L59.6218 202.072Z" fill="#2A5473"/>
</svg>
